<svg width="512" height="374" viewBox="0 0 512 374" fill="none" xmlns="http://www.w3.org/2000/svg">
<path d="M224.912 338.856C226.169 335.296 229.535 332.915 233.311 332.915H347.203C353.348 332.915 357.647 338.991 355.601 344.786L347.664 367.267C346.407 370.828 343.041 373.209 339.266 373.209H225.373C219.228 373.209 214.93 367.132 216.975 361.337L224.912 338.856Z" fill="#FAFBFF"/>
<path d="M243.427 356.307C243.427 355.979 243.351 355.704 243.2 355.479C243.053 355.254 242.863 355.064 242.629 354.908C242.394 354.756 242.135 354.629 241.852 354.527C241.574 354.424 241.305 354.332 241.047 354.249C240.671 354.126 240.287 353.98 239.897 353.809C239.511 353.633 239.159 353.423 238.842 353.179C238.52 352.93 238.256 352.637 238.051 352.3C237.851 351.958 237.751 351.558 237.751 351.099C237.751 350.64 237.851 350.23 238.051 349.869C238.256 349.507 238.522 349.202 238.849 348.953C239.176 348.704 239.548 348.516 239.963 348.389C240.378 348.257 240.795 348.191 241.215 348.191C241.679 348.191 242.126 348.27 242.555 348.426C242.985 348.577 243.366 348.792 243.698 349.07C244.03 349.349 244.296 349.686 244.496 350.081C244.696 350.477 244.801 350.918 244.811 351.407H243.42C243.381 351.099 243.305 350.821 243.193 350.572C243.08 350.318 242.931 350.101 242.746 349.92C242.56 349.739 242.338 349.6 242.079 349.502C241.825 349.4 241.537 349.349 241.215 349.349C240.956 349.349 240.702 349.385 240.453 349.458C240.209 349.532 239.992 349.642 239.801 349.788C239.606 349.935 239.45 350.115 239.333 350.33C239.22 350.545 239.164 350.794 239.164 351.077C239.169 351.385 239.247 351.646 239.399 351.861C239.55 352.071 239.743 352.249 239.977 352.396C240.207 352.542 240.456 352.664 240.724 352.762C240.998 352.859 241.254 352.945 241.493 353.018C241.889 353.14 242.284 353.289 242.68 353.465C243.075 353.636 243.437 353.855 243.764 354.124C244.086 354.373 244.345 354.678 244.54 355.04C244.74 355.401 244.84 355.818 244.84 356.292C244.84 356.771 244.733 357.188 244.518 357.544C244.308 357.901 244.035 358.196 243.698 358.431C243.361 358.67 242.98 358.851 242.555 358.973C242.131 359.09 241.706 359.148 241.281 359.148C240.773 359.148 240.273 359.063 239.779 358.892C239.291 358.721 238.866 358.475 238.505 358.152C238.183 357.874 237.926 357.549 237.736 357.178C237.55 356.802 237.45 356.385 237.436 355.926H238.82C238.864 356.258 238.954 356.553 239.091 356.812C239.228 357.066 239.403 357.281 239.618 357.457C239.833 357.637 240.08 357.774 240.358 357.867C240.641 357.955 240.949 357.999 241.281 357.999C241.545 357.999 241.803 357.967 242.057 357.903C242.316 357.835 242.546 357.73 242.746 357.588C242.946 357.452 243.11 357.278 243.236 357.068C243.363 356.854 243.427 356.6 243.427 356.307ZM253.761 355.794C253.698 356.287 253.571 356.741 253.381 357.156C253.19 357.566 252.944 357.918 252.641 358.211C252.333 358.509 251.969 358.741 251.549 358.907C251.134 359.068 250.671 359.148 250.158 359.148C249.718 359.148 249.318 359.087 248.957 358.965C248.6 358.838 248.283 358.665 248.005 358.445C247.721 358.226 247.477 357.967 247.272 357.669C247.072 357.371 246.906 357.046 246.774 356.695C246.637 356.343 246.535 355.975 246.466 355.589C246.403 355.203 246.369 354.812 246.364 354.417V352.93C246.369 352.535 246.403 352.144 246.466 351.758C246.535 351.373 246.637 351.004 246.774 350.652C246.906 350.301 247.072 349.976 247.272 349.678C247.477 349.375 247.721 349.114 248.005 348.895C248.283 348.675 248.6 348.504 248.957 348.382C249.313 348.255 249.714 348.191 250.158 348.191C250.69 348.191 251.166 348.274 251.586 348.44C252.006 348.602 252.367 348.831 252.67 349.129C252.973 349.432 253.215 349.793 253.395 350.213C253.581 350.633 253.703 351.097 253.761 351.604H252.406C252.362 351.282 252.287 350.982 252.179 350.704C252.072 350.425 251.928 350.181 251.747 349.971C251.567 349.761 251.344 349.598 251.081 349.48C250.822 349.358 250.514 349.297 250.158 349.297C249.836 349.297 249.55 349.351 249.301 349.458C249.057 349.561 248.847 349.703 248.671 349.883C248.49 350.064 248.339 350.274 248.217 350.513C248.1 350.752 248.005 351.006 247.931 351.275C247.858 351.543 247.804 351.819 247.77 352.103C247.741 352.381 247.726 352.652 247.726 352.916V354.417C247.726 354.681 247.741 354.954 247.77 355.237C247.804 355.516 247.858 355.789 247.931 356.058C248.005 356.331 248.1 356.587 248.217 356.827C248.334 357.066 248.483 357.276 248.664 357.457C248.844 357.642 249.057 357.789 249.301 357.896C249.545 357.999 249.831 358.05 250.158 358.05C250.514 358.05 250.822 357.994 251.081 357.881C251.344 357.769 251.567 357.61 251.747 357.405C251.928 357.205 252.072 356.968 252.179 356.695C252.287 356.417 252.362 356.116 252.406 355.794H253.761ZM260.954 356.241H257.394L256.537 359.002H255.182L258.625 348.338H259.76L263.144 359.002H261.796L260.954 356.241ZM257.76 355.062H260.595L259.189 350.433L257.76 355.062ZM266.403 357.852H271.618V359.002H265.048V348.338H266.403V357.852ZM278.971 356.241H275.412L274.555 359.002H273.2L276.642 348.338H277.777L281.161 359.002H279.814L278.971 356.241ZM275.778 355.062H278.612L277.206 350.433L275.778 355.062ZM282.875 359.002V348.338H286.047C286.486 348.343 286.916 348.401 287.336 348.514C287.756 348.621 288.129 348.79 288.456 349.019C288.783 349.249 289.045 349.542 289.24 349.898C289.435 350.254 289.53 350.682 289.526 351.18C289.521 351.458 289.474 351.712 289.386 351.941C289.303 352.171 289.189 352.376 289.042 352.557C288.891 352.742 288.722 352.898 288.537 353.025C288.356 353.152 288.136 353.272 287.878 353.384V353.406C288.146 353.47 288.405 353.584 288.654 353.75C288.903 353.917 289.108 354.1 289.269 354.3C289.44 354.52 289.572 354.766 289.665 355.04C289.762 355.313 289.811 355.608 289.811 355.926C289.816 356.424 289.721 356.863 289.526 357.244C289.33 357.625 289.069 357.942 288.742 358.196C288.415 358.455 288.036 358.653 287.607 358.79C287.182 358.926 286.742 358.997 286.288 359.002H282.875ZM284.237 354.014V357.852H286.325C286.608 357.847 286.877 357.801 287.131 357.713C287.384 357.62 287.609 357.493 287.804 357.332C288 357.171 288.153 356.973 288.266 356.739C288.383 356.504 288.442 356.238 288.442 355.94C288.446 355.638 288.395 355.369 288.288 355.135C288.185 354.9 288.041 354.7 287.856 354.534C287.67 354.373 287.453 354.249 287.204 354.161C286.955 354.073 286.686 354.024 286.398 354.014H284.237ZM284.237 352.886H286.127C286.381 352.881 286.63 352.842 286.874 352.769C287.118 352.691 287.336 352.579 287.526 352.432C287.716 352.291 287.87 352.115 287.987 351.905C288.105 351.695 288.163 351.451 288.163 351.172C288.163 350.875 288.105 350.621 287.987 350.411C287.875 350.201 287.724 350.027 287.533 349.891C287.338 349.759 287.113 349.661 286.86 349.598C286.611 349.534 286.354 349.5 286.09 349.495H284.237V352.886ZM291.899 348.338H298.344V349.517H295.788V357.83H298.344V359.002H291.899V357.83H294.396V349.517H291.899V348.338ZM302.438 357.852H307.653V359.002H301.083V348.338H302.438V357.852ZM309.916 348.338H316.361V349.517H313.805V357.83H316.361V359.002H309.916V357.83H312.414V349.517H309.916V348.338ZM326.117 349.495H322.821V359.002H321.503V349.495H318.207V348.338H326.117V349.495ZM331.076 353.692L333.507 348.338H335.046L331.728 355.025L331.706 359.002H330.446L330.424 355.025L327.106 348.338H328.652L331.076 353.692Z" fill="url(#paint0_linear_1_8)"/>
<path d="M5.94115 247.882C2.38082 246.625 1.45266e-05 243.259 1.43616e-05 239.483L6.93533e-06 69.5912C6.66671e-06 63.446 6.07644 59.1473 11.8711 61.1931L34.3523 69.1302C37.9127 70.3872 40.2935 73.7526 40.2935 77.5283L40.2935 247.421C40.2935 253.566 34.217 257.864 28.4224 255.819L5.94115 247.882Z" fill="#FAFBFF"/>
<path d="M21.1577 227.443L21.1577 231.896L24.937 231.896L24.937 226.704L26.0869 226.704L26.0869 233.251L15.4229 233.251L15.4229 226.77L16.5801 226.77L16.5801 231.896L20.0078 231.896L20.0078 227.443L21.1577 227.443ZM26.0869 217.622L26.0869 218.999L18.1182 223.137L26.0869 223.159L26.0869 224.528L15.4229 224.528L15.4229 223.151L23.377 219.013L15.4229 218.991L15.4229 217.622L26.0869 217.622ZM24.688 208.393C24.8833 208.559 25.0615 208.735 25.2227 208.92C25.3789 209.106 25.5156 209.299 25.6328 209.499C25.8379 209.841 25.9893 210.209 26.0869 210.605C26.1895 211 26.2383 211.416 26.2334 211.85C26.2285 212.29 26.1626 212.695 26.0357 213.066C25.9038 213.432 25.7232 213.762 25.4937 214.055C25.2691 214.348 25.0029 214.604 24.6953 214.824C24.3877 215.043 24.0532 215.227 23.6919 215.373C23.3355 215.524 22.9619 215.639 22.5713 215.717C22.1758 215.791 21.7778 215.83 21.3775 215.834L20.1397 215.834C19.7442 215.83 19.3511 215.795 18.9605 215.732C18.565 215.664 18.1865 215.561 17.8252 215.424C17.4639 215.288 17.1294 215.117 16.8218 214.912C16.5093 214.707 16.2383 214.46 16.0088 214.172C15.7842 213.889 15.606 213.566 15.4741 213.205C15.3423 212.844 15.2764 212.438 15.2764 211.989C15.2764 211.491 15.3545 211.032 15.5108 210.612C15.6621 210.192 15.8794 209.826 16.1626 209.514C16.4507 209.201 16.7974 208.95 17.2027 208.759C17.603 208.569 18.0523 208.452 18.5503 208.408L18.5503 209.748C18.2427 209.802 17.9595 209.885 17.7007 209.997C17.437 210.109 17.2124 210.256 17.0269 210.437C16.8413 210.622 16.6973 210.842 16.5947 211.096C16.4873 211.35 16.4336 211.645 16.4336 211.982C16.4336 212.304 16.4898 212.59 16.6021 212.839C16.7095 213.088 16.856 213.305 17.0415 213.491C17.2271 213.676 17.4444 213.83 17.6934 213.952C17.9375 214.074 18.1963 214.174 18.4697 214.252C18.7432 214.331 19.0215 214.387 19.3047 214.421C19.5879 214.455 19.8613 214.472 20.125 214.472L21.3775 214.472C21.646 214.467 21.9243 214.445 22.2124 214.406C22.4956 214.362 22.7739 214.296 23.0474 214.208C23.3208 214.121 23.5796 214.008 23.8237 213.872C24.0679 213.735 24.2827 213.569 24.4683 213.374C24.6538 213.183 24.8027 212.961 24.9151 212.707C25.0225 212.453 25.0786 212.165 25.0835 211.843C25.0884 211.657 25.0811 211.464 25.0615 211.264C25.042 211.059 25.0029 210.861 24.9444 210.671C24.8858 210.48 24.8076 210.302 24.71 210.136C24.6074 209.97 24.4756 209.831 24.3145 209.719L21.9194 209.704L21.9194 211.872L20.7769 211.872L20.7769 208.415L24.688 208.393ZM15.4229 206.284L15.4229 199.838L16.6021 199.838L16.6021 202.395L24.9151 202.395L24.9151 199.838L26.0869 199.838L26.0869 206.284L24.9151 206.284L24.9151 203.786L16.6021 203.786L16.6021 206.284L15.4229 206.284ZM26.0869 190.595L26.0869 191.972L18.1182 196.11L26.0869 196.132L26.0869 197.502L15.4229 197.502L15.4229 196.125L23.377 191.987L15.4229 191.965L15.4229 190.595L26.0869 190.595ZM21.1577 182.399L21.1577 186.853L24.937 186.853L24.937 181.66L26.0869 181.66L26.0869 188.208L15.4229 188.208L15.4229 181.726L16.5801 181.726L16.5801 186.853L20.0078 186.853L20.0078 182.399L21.1577 182.399ZM21.1577 173.391L21.1577 177.844L24.937 177.844L24.937 172.651L26.0869 172.651L26.0869 179.199L15.4229 179.199L15.4229 172.717L16.5801 172.717L16.5801 177.844L20.0078 177.844L20.0078 173.391L21.1577 173.391ZM21.7363 166.718L21.7363 168.85L26.0869 168.85L26.0869 170.197L15.4229 170.197L15.4229 167.07C15.4326 166.572 15.5034 166.103 15.6353 165.664C15.7671 165.224 15.9649 164.838 16.2285 164.506C16.4922 164.179 16.8242 163.923 17.2246 163.737C17.6201 163.547 18.0864 163.452 18.6235 163.452C18.9702 163.452 19.2876 163.503 19.5757 163.605C19.8638 163.703 20.125 163.84 20.3594 164.016C20.5938 164.191 20.8013 164.401 20.9819 164.646C21.1626 164.89 21.3164 165.158 21.4434 165.451L25.999 163.188L26.0869 163.195L26.0869 164.624L21.7363 166.718ZM20.6231 168.85L20.6231 167.033C20.6182 166.73 20.5718 166.445 20.4839 166.176C20.3911 165.908 20.2593 165.671 20.0884 165.466C19.9175 165.266 19.71 165.107 19.4658 164.99C19.2168 164.873 18.9312 164.814 18.6089 164.814C18.2671 164.814 17.9693 164.87 17.7153 164.982C17.4566 165.095 17.2393 165.251 17.0635 165.451C16.8926 165.651 16.7632 165.891 16.6753 166.169C16.5874 166.442 16.541 166.743 16.5361 167.07L16.5361 168.85L20.6231 168.85ZM15.4229 161.24L15.4229 154.794L16.6021 154.794L16.6021 157.351L24.9151 157.351L24.9151 154.794L26.0869 154.794L26.0869 161.24L24.9151 161.24L24.9151 158.742L16.6021 158.742L16.6021 161.24L15.4229 161.24ZM26.0869 145.551L26.0869 146.928L18.1182 151.066L26.0869 151.088L26.0869 152.458L15.4229 152.458L15.4229 151.081L23.377 146.943L15.4229 146.921L15.4229 145.551L26.0869 145.551ZM24.688 136.323C24.8833 136.489 25.0615 136.665 25.2227 136.85C25.3789 137.036 25.5156 137.229 25.6328 137.429C25.8379 137.771 25.9893 138.139 26.0869 138.535C26.1895 138.93 26.2383 139.345 26.2334 139.78C26.2285 140.219 26.1626 140.625 26.0357 140.996C25.9038 141.362 25.7232 141.691 25.4937 141.984C25.2691 142.277 25.0029 142.534 24.6953 142.753C24.3877 142.973 24.0532 143.156 23.6919 143.303C23.3355 143.454 22.9619 143.569 22.5713 143.647C22.1758 143.72 21.7778 143.759 21.3775 143.764L20.1397 143.764C19.7442 143.759 19.3511 143.725 18.9605 143.662C18.565 143.593 18.1865 143.491 17.8252 143.354C17.4639 143.217 17.1294 143.046 16.8218 142.841C16.5093 142.636 16.2383 142.39 16.0088 142.102C15.7842 141.818 15.606 141.496 15.4741 141.135C15.3423 140.773 15.2764 140.368 15.2764 139.919C15.2764 139.421 15.3545 138.962 15.5108 138.542C15.6621 138.122 15.8794 137.756 16.1626 137.443C16.4507 137.131 16.7974 136.879 17.2026 136.689C17.603 136.499 18.0523 136.381 18.5503 136.337L18.5503 137.678C18.2427 137.731 17.9595 137.814 17.7007 137.927C17.437 138.039 17.2124 138.186 17.0269 138.366C16.8413 138.552 16.6973 138.771 16.5947 139.025C16.4873 139.279 16.4336 139.575 16.4336 139.912C16.4336 140.234 16.4898 140.52 16.6021 140.769C16.7095 141.018 16.856 141.235 17.0415 141.42C17.2271 141.606 17.4443 141.76 17.6934 141.882C17.9375 142.004 18.1963 142.104 18.4697 142.182C18.7432 142.26 19.0215 142.316 19.3047 142.351C19.5879 142.385 19.8613 142.402 20.125 142.402L21.3775 142.402C21.646 142.397 21.9243 142.375 22.2124 142.336C22.4956 142.292 22.7739 142.226 23.0474 142.138C23.3208 142.05 23.5796 141.938 23.8237 141.801C24.0679 141.665 24.2827 141.499 24.4683 141.303C24.6538 141.113 24.8027 140.891 24.9151 140.637C25.0225 140.383 25.0786 140.095 25.0835 139.772C25.0884 139.587 25.0811 139.394 25.0615 139.194C25.042 138.989 25.0029 138.791 24.9443 138.601C24.8858 138.41 24.8076 138.232 24.71 138.066C24.6074 137.9 24.4756 137.761 24.3145 137.648L21.9194 137.634L21.9194 139.802L20.7769 139.802L20.7769 136.345L24.688 136.323ZM26.0869 125.344L15.4229 125.344L15.4229 122.875C15.4277 122.46 15.4717 122.07 15.5547 121.704C15.6328 121.333 15.7451 120.991 15.8916 120.678C16.0918 120.244 16.3555 119.86 16.6826 119.528C17.0049 119.191 17.3784 118.923 17.8032 118.723C18.1646 118.542 18.5601 118.405 18.9898 118.312C19.4194 118.215 19.8784 118.164 20.3667 118.159L21.1504 118.159C21.6192 118.159 22.0635 118.205 22.4834 118.298C22.9033 118.386 23.2891 118.515 23.6406 118.686C24.0068 118.862 24.3389 119.084 24.6367 119.353C24.9346 119.621 25.1885 119.921 25.3984 120.253C25.6182 120.605 25.7866 121.003 25.9038 121.447C26.021 121.887 26.082 122.363 26.0869 122.875L26.0869 125.344ZM16.5361 123.967L24.981 123.967L24.981 122.875C24.9761 122.485 24.9273 122.131 24.8345 121.813C24.7417 121.491 24.6099 121.206 24.439 120.957C24.2632 120.693 24.0484 120.466 23.7944 120.275C23.5357 120.08 23.2476 119.926 22.9302 119.814C22.6714 119.716 22.3931 119.643 22.0952 119.594C21.7925 119.545 21.4775 119.519 21.1504 119.514L20.3521 119.514C20.02 119.519 19.7026 119.548 19.3999 119.602C19.0923 119.65 18.8067 119.726 18.543 119.829C18.2012 119.96 17.8936 120.139 17.6201 120.363C17.3418 120.583 17.1172 120.854 16.9463 121.176C16.8193 121.406 16.7217 121.662 16.6533 121.945C16.5801 122.229 16.541 122.539 16.5361 122.875L16.5361 123.967ZM21.1577 110.329L21.1577 114.782L24.937 114.782L24.937 109.589L26.0869 109.589L26.0869 116.137L15.4229 116.137L15.4229 109.655L16.5801 109.655L16.5801 114.782L20.0078 114.782L20.0078 110.329L21.1577 110.329ZM21.8096 105.708L26.0869 105.708L26.0869 107.062L15.4229 107.062L15.4229 103.605C15.4326 103.127 15.5083 102.675 15.6499 102.25C15.7915 101.821 15.9966 101.445 16.2651 101.123C16.5337 100.8 16.8657 100.546 17.2612 100.361C17.6567 100.17 18.1108 100.075 18.6235 100.075C19.1362 100.075 19.5903 100.17 19.9858 100.361C20.3765 100.546 20.7061 100.8 20.9746 101.123C21.2432 101.445 21.4483 101.821 21.5899 102.25C21.7315 102.675 21.8047 103.127 21.8096 103.605L21.8096 105.708ZM20.6963 105.708L20.6963 103.605C20.6914 103.293 20.6426 103.005 20.5498 102.741C20.4522 102.478 20.3154 102.248 20.1397 102.053C19.9639 101.857 19.7515 101.706 19.5025 101.599C19.2485 101.486 18.9605 101.43 18.6382 101.43C18.3159 101.43 18.0254 101.486 17.7666 101.599C17.5078 101.706 17.2881 101.855 17.1074 102.045C16.9268 102.241 16.7876 102.473 16.69 102.741C16.5923 103.005 16.541 103.293 16.5361 103.605L16.5361 105.708L20.6963 105.708ZM16.5801 90.9858L16.5801 94.2817L26.0869 94.2817L26.0869 95.6001L16.5801 95.6001L16.5801 98.896L15.4229 98.896L15.4229 90.9858L16.5801 90.9858ZM26.0869 82.4824L26.0869 83.7642L21.1577 83.7642L21.1577 88.1367L26.0869 88.1367L26.0869 89.4111L15.4229 89.4111L15.4229 88.1367L20.0078 88.1367L20.0078 83.7642L15.4229 83.7642L15.4229 82.4824L26.0869 82.4824Z" fill="url(#paint1_linear_1_8)"/>
<path d="M59.299 320.309C59.2989 321.137 59.9705 321.809 60.7989 321.809C61.6274 321.809 62.2989 321.137 62.299 320.309L59.299 320.309ZM60.7995 0L52.1392 15L69.4597 15L60.7995 0ZM62.299 320.309L62.2995 13.5L59.2995 13.5L59.299 320.309L62.299 320.309Z" fill="#CCD2DA"/>
<path d="M60 318.5C59.1716 318.5 58.5 319.172 58.5 320C58.5 320.828 59.1716 321.5 60 321.5V318.5ZM512 320L497 311.34V328.66L512 320ZM60 321.5H498.5V318.5H60V321.5Z" fill="#CCD2DA"/>
<mask id="mask0_1_8" style="mask-type:alpha" maskUnits="userSpaceOnUse" x="62" y="15" width="435" height="304">
<rect x="62" y="15" width="435" height="304" fill="white"/>
</mask>
<g mask="url(#mask0_1_8)">
<g style="mix-blend-mode:multiply">
<mask id="path-8-inside-1_1_8" fill="white">
<path d="M646 331.502C646 286.283 628.037 242.915 596.062 210.94C564.087 178.965 520.719 161.002 475.5 161.002C430.281 161.002 386.913 178.965 354.938 210.94C322.963 242.915 305 286.283 305 331.502L379.606 331.502C379.606 306.069 389.709 281.678 407.693 263.695C425.677 245.711 450.067 235.608 475.5 235.608C500.933 235.608 525.323 245.711 543.307 263.695C561.291 281.678 571.394 306.069 571.394 331.502H646Z"/>
</mask>
<path d="M646 331.502C646 286.283 628.037 242.915 596.062 210.94C564.087 178.965 520.719 161.002 475.5 161.002C430.281 161.002 386.913 178.965 354.938 210.94C322.963 242.915 305 286.283 305 331.502L379.606 331.502C379.606 306.069 389.709 281.678 407.693 263.695C425.677 245.711 450.067 235.608 475.5 235.608C500.933 235.608 525.323 245.711 543.307 263.695C561.291 281.678 571.394 306.069 571.394 331.502H646Z" fill="#FAFBFF"/>
<path d="M646 331.502C646 286.283 628.037 242.915 596.062 210.94C564.087 178.965 520.719 161.002 475.5 161.002C430.281 161.002 386.913 178.965 354.938 210.94C322.963 242.915 305 286.283 305 331.502L379.606 331.502C379.606 306.069 389.709 281.678 407.693 263.695C425.677 245.711 450.067 235.608 475.5 235.608C500.933 235.608 525.323 245.711 543.307 263.695C561.291 281.678 571.394 306.069 571.394 331.502H646Z" stroke="#D0D4FA" stroke-width="24" mask="url(#path-8-inside-1_1_8)"/>
</g>
<g style="mix-blend-mode:multiply">
<mask id="path-9-inside-2_1_8" fill="white">
<path d="M246 2.50195C246 47.7214 228.037 91.0887 196.062 123.064C164.087 155.039 120.719 173.002 75.5 173.002C30.2806 173.002 -13.0867 155.039 -45.0617 123.064C-77.0366 91.0887 -95 47.7214 -95 2.50198L-20.3936 2.50197C-20.3936 27.9345 -10.2905 52.3254 7.69301 70.309C25.6765 88.2925 50.0675 98.3955 75.5 98.3955C100.933 98.3955 125.323 88.2925 143.307 70.3089C161.291 52.3254 171.394 27.9345 171.394 2.50195H246Z"/>
</mask>
<path d="M246 2.50195C246 47.7214 228.037 91.0887 196.062 123.064C164.087 155.039 120.719 173.002 75.5 173.002C30.2806 173.002 -13.0867 155.039 -45.0617 123.064C-77.0366 91.0887 -95 47.7214 -95 2.50198L-20.3936 2.50197C-20.3936 27.9345 -10.2905 52.3254 7.69301 70.309C25.6765 88.2925 50.0675 98.3955 75.5 98.3955C100.933 98.3955 125.323 88.2925 143.307 70.3089C161.291 52.3254 171.394 27.9345 171.394 2.50195H246Z" fill="#FAFBFF"/>
<path d="M246 2.50195C246 47.7214 228.037 91.0887 196.062 123.064C164.087 155.039 120.719 173.002 75.5 173.002C30.2806 173.002 -13.0867 155.039 -45.0617 123.064C-77.0366 91.0887 -95 47.7214 -95 2.50198L-20.3936 2.50197C-20.3936 27.9345 -10.2905 52.3254 7.69301 70.309C25.6765 88.2925 50.0675 98.3955 75.5 98.3955C100.933 98.3955 125.323 88.2925 143.307 70.3089C161.291 52.3254 171.394 27.9345 171.394 2.50195H246Z" stroke="#FFD9E9" stroke-width="24" mask="url(#path-9-inside-2_1_8)"/>
</g>
</g>
<g filter="url(#filter0_dd_1_8)">
<path d="M186.648 172.161C183.142 167.849 183.143 161.724 186.649 157.412C195.235 146.851 211.512 127.274 224.392 114.394C237.272 101.514 256.848 85.2383 267.409 76.6516C271.722 73.1453 277.847 73.1453 282.159 76.6516C292.721 85.2383 312.296 101.514 325.176 114.394C338.057 127.274 354.333 146.851 362.92 157.412C366.426 161.724 366.426 167.849 362.92 172.161C354.34 182.716 338.078 202.276 325.176 215.178C312.274 228.081 292.712 244.343 282.158 252.923C277.846 256.428 271.722 256.428 267.41 252.923C256.856 244.343 237.294 228.081 224.392 215.178C211.49 202.276 195.228 182.716 186.648 172.161Z" fill="white"/>
</g>
<g clip-path="url(#clip0_1_8)">
<path d="M241.457 151.614H218.806C217.805 151.614 216.994 152.416 216.994 153.405V175.793C216.994 176.782 217.805 177.584 218.806 177.584H241.457C242.458 177.584 243.269 176.782 243.269 175.793V153.405C243.269 152.416 242.458 151.614 241.457 151.614Z" stroke="#9902FF" stroke-width="3"/>
<path d="M241.457 151.614H218.806C217.805 151.614 216.994 152.416 216.994 153.405V175.793C216.994 176.782 217.805 177.584 218.806 177.584H241.457C242.458 177.584 243.269 176.782 243.269 175.793V153.405C243.269 152.416 242.458 151.614 241.457 151.614Z" stroke="url(#paint2_linear_1_8)" stroke-width="3"/>
<path d="M239.409 172.237V173.108H235.06V172.198L236.826 170.427C237.418 169.827 237.826 169.378 238.053 169.082C238.279 168.778 238.392 168.462 238.392 168.132C238.392 167.835 238.275 167.581 238.043 167.37C237.81 167.159 237.511 167.054 237.145 167.054C236.832 167.054 236.563 167.146 236.337 167.331C236.111 167.515 235.965 167.739 235.898 168.003L235.06 167.667C235.193 167.251 235.449 166.902 235.828 166.618C236.207 166.328 236.653 166.183 237.165 166.183C237.783 166.183 238.299 166.371 238.711 166.747C239.123 167.123 239.329 167.585 239.329 168.132C239.329 168.785 238.967 169.49 238.242 170.249L236.247 172.237H239.409Z" fill="#9902FF"/>
<path d="M251.169 171.764V155.023H257.274C258.61 155.023 259.757 155.46 260.716 156.333C261.675 157.19 262.154 158.273 262.154 159.583C262.154 161.235 261.392 162.396 259.868 163.066V163.16C260.732 163.441 261.424 163.932 261.942 164.633C262.461 165.319 262.72 166.106 262.72 166.994C262.72 168.366 262.217 169.504 261.212 170.408C260.237 171.312 259.035 171.764 257.604 171.764H251.169ZM253.338 157.081V162.201H257.274C258.045 162.201 258.689 161.944 259.208 161.43C259.726 160.9 259.985 160.3 259.985 159.629C259.985 158.975 259.734 158.382 259.231 157.852C258.728 157.338 258.107 157.081 257.369 157.081H253.338ZM253.338 164.212V169.707H257.699C258.485 169.707 259.152 169.434 259.703 168.888C260.237 168.343 260.504 167.696 260.504 166.948C260.504 166.215 260.229 165.576 259.679 165.03C259.129 164.485 258.437 164.212 257.604 164.212H253.338ZM266.368 168.257C266.368 168.818 266.604 169.286 267.075 169.66C267.563 170.034 268.128 170.221 268.773 170.221C269.684 170.221 270.494 169.886 271.201 169.216C271.924 168.545 272.285 167.758 272.285 166.854C271.609 166.324 270.667 166.059 269.456 166.059C268.577 166.059 267.838 166.27 267.241 166.691C266.659 167.111 266.368 167.634 266.368 168.257ZM269.173 159.933C270.776 159.933 272.042 160.362 272.969 161.219C273.896 162.061 274.36 163.222 274.36 164.703V171.764H272.285V170.174H272.191C271.295 171.484 270.101 172.138 268.608 172.138C267.335 172.138 266.266 171.764 265.402 171.016C264.553 170.268 264.129 169.333 264.129 168.21C264.129 167.026 264.577 166.083 265.472 165.381C266.384 164.68 267.594 164.329 269.103 164.329C270.391 164.329 271.452 164.563 272.285 165.03V164.539C272.285 163.791 271.987 163.16 271.39 162.646C270.792 162.116 270.093 161.851 269.292 161.851C268.081 161.851 267.122 162.357 266.415 163.37L264.506 162.178C265.559 160.682 267.115 159.933 269.173 159.933ZM285.531 168.584C285.531 169.582 285.091 170.424 284.211 171.11C283.331 171.796 282.223 172.138 280.887 172.138C279.724 172.138 278.703 171.842 277.823 171.25C276.942 170.642 276.314 169.847 275.937 168.865L277.87 168.047C278.153 168.733 278.561 169.27 279.095 169.66C279.646 170.034 280.243 170.221 280.887 170.221C281.579 170.221 282.152 170.073 282.608 169.777C283.079 169.481 283.316 169.13 283.316 168.725C283.316 167.992 282.749 167.454 281.618 167.111L279.638 166.62C277.39 166.059 276.267 164.984 276.267 163.394C276.267 162.349 276.691 161.515 277.54 160.892C278.404 160.253 279.504 159.933 280.84 159.933C281.861 159.933 282.781 160.175 283.598 160.658C284.431 161.141 285.013 161.788 285.343 162.599L283.409 163.394C283.19 162.911 282.828 162.536 282.325 162.271C281.838 161.991 281.288 161.851 280.675 161.851C280.109 161.851 279.598 161.991 279.143 162.271C278.703 162.552 278.483 162.895 278.483 163.3C278.483 163.955 279.104 164.423 280.345 164.703L282.089 165.147C284.384 165.709 285.531 166.854 285.531 168.584ZM292.721 172.138C291.023 172.138 289.625 171.562 288.524 170.408C287.424 169.255 286.874 167.797 286.874 166.036C286.874 164.29 287.408 162.84 288.477 161.687C289.546 160.518 290.913 159.933 292.579 159.933C294.292 159.933 295.652 160.487 296.657 161.593C297.679 162.685 298.19 164.22 298.19 166.2L298.166 166.433H289.09C289.122 167.556 289.499 168.46 290.222 169.146C290.945 169.831 291.809 170.174 292.815 170.174C294.198 170.174 295.282 169.489 296.068 168.117L298.001 169.052C297.483 170.018 296.76 170.774 295.833 171.32C294.921 171.866 293.884 172.138 292.721 172.138ZM289.255 164.656H295.88C295.817 163.861 295.487 163.207 294.889 162.692C294.308 162.162 293.522 161.897 292.532 161.897C291.715 161.897 291.007 162.147 290.41 162.646C289.829 163.144 289.444 163.815 289.255 164.656ZM304.401 171.951C303.459 171.951 302.673 171.663 302.044 171.086C301.431 170.51 301.116 169.707 301.101 168.678V162.271H299.074V160.307H301.101V156.8H303.27V160.307H306.099V162.271H303.27V167.977C303.27 168.74 303.419 169.262 303.718 169.543C304.016 169.808 304.354 169.941 304.731 169.941C304.904 169.941 305.069 169.925 305.226 169.894C305.399 169.847 305.556 169.793 305.698 169.73L306.382 171.647C305.816 171.85 305.156 171.951 304.401 171.951ZM324.868 160.307L321.143 171.764H318.927L316.051 162.973L313.198 171.764H311.006L307.281 160.307H309.545L312.114 168.959H312.138L314.99 160.307H317.23L320.082 168.959H320.105L322.652 160.307H324.868ZM325.39 166.036C325.39 164.274 325.948 162.817 327.063 161.664C328.195 160.51 329.617 159.933 331.33 159.933C333.043 159.933 334.458 160.51 335.574 161.664C336.705 162.817 337.271 164.274 337.271 166.036C337.271 167.813 336.705 169.27 335.574 170.408C334.458 171.562 333.043 172.138 331.33 172.138C329.617 172.138 328.195 171.562 327.063 170.408C325.948 169.255 325.39 167.797 325.39 166.036ZM327.558 166.036C327.558 167.267 327.92 168.265 328.643 169.029C329.366 169.793 330.262 170.174 331.33 170.174C332.399 170.174 333.295 169.793 334.018 169.029C334.741 168.265 335.102 167.267 335.102 166.036C335.102 164.82 334.741 163.83 334.018 163.066C333.279 162.287 332.383 161.897 331.33 161.897C330.277 161.897 329.381 162.287 328.643 163.066C327.92 163.83 327.558 164.82 327.558 166.036Z" fill="#020032"/>
</g>
<path d="M198.376 171.982C196.437 169.603 194.883 167.67 193.855 166.386L194.029 166.247C193.581 165.688 193.233 165.251 192.997 164.954C192.891 164.82 192.807 164.715 192.747 164.639C192.807 164.564 192.891 164.458 192.997 164.324C193.233 164.027 193.581 163.591 194.029 163.031L193.855 162.892C194.883 161.608 196.438 159.676 198.377 157.297L198.549 157.437C199.425 156.363 200.379 155.197 201.399 153.959L201.227 153.818C202.645 152.097 204.19 150.235 205.825 148.283L205.995 148.425C206.933 147.306 207.901 146.157 208.892 144.988L208.723 144.844C210.236 143.059 211.803 141.227 213.401 139.38L213.569 139.526C214.544 138.399 215.531 137.268 216.523 136.138L216.357 135.992C217.944 134.186 219.547 132.387 221.144 130.624L221.308 130.774C222.325 129.651 223.339 128.544 224.345 127.46L224.182 127.309C225.865 125.496 227.526 123.747 229.137 122.099L229.296 122.255C229.827 121.711 230.353 121.179 230.873 120.659C231.393 120.139 231.925 119.613 232.469 119.081L232.314 118.923C233.961 117.311 235.71 115.651 237.524 113.968L237.675 114.131C238.759 113.125 239.866 112.11 240.988 111.094L240.839 110.929C242.601 109.332 244.401 107.729 246.206 106.142L246.353 106.309C247.482 105.316 248.614 104.33 249.74 103.355L249.595 103.187C251.441 101.589 253.273 100.021 255.059 98.5082L255.202 98.6776C256.371 97.6865 257.52 96.7188 258.64 95.781L258.497 95.6109C260.449 93.9753 262.311 92.431 264.033 91.0131L264.174 91.1844C265.412 90.1648 266.577 89.2106 267.651 88.3349L267.511 88.1628C269.89 86.2232 271.823 84.6686 273.107 83.6411L273.246 83.8144C273.805 83.3665 274.242 83.0188 274.538 82.7831C274.673 82.6763 274.778 82.5925 274.854 82.5328C274.929 82.5925 275.034 82.6763 275.169 82.7831C275.465 83.0188 275.902 83.3665 276.462 83.8144L276.6 83.6411C277.884 84.6686 279.817 86.2232 282.196 88.1628L282.056 88.3349C283.13 89.2106 284.295 90.1648 285.533 91.1845L285.674 91.0131C287.396 92.431 289.258 93.9753 291.21 95.6109L291.067 95.781C292.187 96.7188 293.336 97.6865 294.505 98.6776L294.649 98.5082C296.434 100.021 298.266 101.589 300.112 103.187L299.967 103.355C301.094 104.33 302.225 105.316 303.354 106.309L303.501 106.142C305.306 107.729 307.106 109.332 308.868 110.929L308.719 111.094C309.841 112.11 310.948 113.125 312.032 114.131L312.183 113.968C313.997 115.651 315.746 117.311 317.393 118.923L317.238 119.081C317.782 119.613 318.314 120.139 318.834 120.659C319.354 121.179 319.88 121.711 320.411 122.255L320.57 122.099C322.181 123.747 323.842 125.496 325.525 127.309L325.362 127.46C326.368 128.544 327.382 129.651 328.399 130.774L328.563 130.624C330.16 132.387 331.763 134.186 333.35 135.992L333.184 136.138C334.176 137.268 335.163 138.399 336.138 139.526L336.306 139.38C337.904 141.227 339.471 143.059 340.984 144.844L340.815 144.988C341.806 146.157 342.774 147.306 343.712 148.425L343.882 148.283C345.517 150.235 347.062 152.097 348.48 153.818L348.308 153.959C349.328 155.197 350.282 156.363 351.158 157.437L351.33 157.297C353.269 159.676 354.824 161.608 355.852 162.892L355.678 163.031C356.126 163.591 356.474 164.027 356.71 164.324C356.816 164.458 356.9 164.564 356.96 164.639C356.9 164.715 356.816 164.82 356.71 164.955C356.474 165.251 356.126 165.688 355.678 166.247L355.852 166.386C354.824 167.67 353.27 169.603 351.331 171.982L351.159 171.842C350.283 172.916 349.329 174.082 348.309 175.32L348.48 175.461C347.063 177.182 345.519 179.044 343.883 180.996L343.713 180.854C342.775 181.973 341.807 183.122 340.816 184.291L340.986 184.435C339.473 186.22 337.905 188.052 336.307 189.899L336.139 189.754C335.164 190.88 334.177 192.011 333.185 193.141L333.351 193.287C331.764 195.092 330.161 196.892 328.564 198.654L328.4 198.505C327.383 199.627 326.369 200.734 325.363 201.818L325.525 201.969C323.842 203.782 322.182 205.531 320.57 207.179L320.411 207.024C319.88 207.567 319.354 208.099 318.834 208.619C318.314 209.139 317.781 209.666 317.238 210.197L317.393 210.356C315.746 211.968 313.996 213.628 312.183 215.311L312.032 215.148C310.948 216.154 309.842 217.169 308.72 218.185L308.869 218.35C307.106 219.947 305.307 221.55 303.502 223.137L303.355 222.97C302.226 223.963 301.094 224.95 299.968 225.925L300.113 226.092C298.267 227.691 296.434 229.258 294.649 230.771L294.506 230.602C293.336 231.593 292.187 232.561 291.068 233.498L291.211 233.669C289.258 235.304 287.397 236.848 285.675 238.266L285.534 238.095C284.296 239.114 283.131 240.069 282.056 240.944L282.197 241.116C279.817 243.056 277.885 244.61 276.601 245.637L276.462 245.464C275.902 245.912 275.465 246.26 275.169 246.495C275.034 246.602 274.929 246.686 274.854 246.746C274.778 246.686 274.673 246.602 274.538 246.495C274.242 246.26 273.805 245.912 273.245 245.464L273.107 245.637C271.822 244.61 269.89 243.056 267.511 241.116L267.651 240.944C266.576 240.069 265.411 239.114 264.173 238.095L264.032 238.266C262.31 236.848 260.449 235.304 258.496 233.669L258.639 233.498C257.52 232.561 256.371 231.593 255.201 230.602L255.058 230.771C253.273 229.258 251.44 227.691 249.594 226.092L249.739 225.925C248.613 224.95 247.481 223.963 246.352 222.97L246.205 223.137C244.4 221.55 242.601 219.947 240.838 218.35L240.987 218.185C239.866 217.169 238.759 216.154 237.675 215.148L237.524 215.311C235.711 213.628 233.962 211.968 232.314 210.356L232.469 210.197C231.926 209.666 231.393 209.139 230.873 208.619C230.353 208.099 229.827 207.567 229.296 207.024L229.137 207.179C227.525 205.531 225.865 203.782 224.182 201.969L224.344 201.818C223.338 200.734 222.324 199.627 221.307 198.505L221.143 198.654C219.546 196.892 217.943 195.092 216.356 193.287L216.522 193.141C215.53 192.011 214.543 190.88 213.568 189.754L213.4 189.899C211.802 188.052 210.234 186.22 208.721 184.435L208.891 184.291C207.9 183.122 206.932 181.973 205.994 180.854L205.824 180.996C204.188 179.044 202.644 177.182 201.227 175.461L201.398 175.32C200.378 174.082 199.424 172.916 198.548 171.842L198.376 171.982Z" stroke="url(#paint3_linear_1_8)" stroke-width="0.443962" stroke-dasharray="4.44 7.1"/>
<path d="M82.2109 31V19.625H84.8438C85.2865 19.6302 85.7031 19.6771 86.0938 19.7656C86.4896 19.849 86.8542 19.9688 87.1875 20.125C87.651 20.3385 88.0599 20.6198 88.4141 20.9688C88.7734 21.3125 89.0599 21.7109 89.2734 22.1641C89.4661 22.5495 89.612 22.9714 89.7109 23.4297C89.8151 23.888 89.8698 24.3776 89.875 24.8984V25.7344C89.875 26.2344 89.8255 26.7083 89.7266 27.1562C89.6328 27.6042 89.4948 28.0156 89.3125 28.3906C89.125 28.7812 88.888 29.1354 88.6016 29.4531C88.3151 29.7708 87.9948 30.0417 87.6406 30.2656C87.2656 30.5 86.8411 30.6797 86.3672 30.8047C85.8984 30.9297 85.3906 30.9948 84.8438 31H82.2109ZM83.6797 20.8125V29.8203H84.8438C85.2604 29.8151 85.638 29.763 85.9766 29.6641C86.3203 29.5651 86.625 29.4245 86.8906 29.2422C87.1719 29.0547 87.4141 28.8255 87.6172 28.5547C87.8255 28.2786 87.9896 27.9714 88.1094 27.6328C88.2135 27.3568 88.2917 27.0599 88.3438 26.7422C88.3958 26.4193 88.4245 26.0833 88.4297 25.7344V24.8828C88.4245 24.5286 88.3932 24.1901 88.3359 23.8672C88.2839 23.5391 88.2031 23.2344 88.0938 22.9531C87.9531 22.5885 87.763 22.2604 87.5234 21.9688C87.2891 21.6719 87 21.4323 86.6562 21.25C86.4115 21.1146 86.138 21.0104 85.8359 20.9375C85.5339 20.8594 85.2031 20.8177 84.8438 20.8125H83.6797ZM95.7031 31.1562C95.1094 31.1562 94.5625 31.0547 94.0625 30.8516C93.5677 30.6484 93.1432 30.3646 92.7891 30C92.4349 29.6354 92.1589 29.2031 91.9609 28.7031C91.763 28.2031 91.6641 27.6589 91.6641 27.0703V26.7422C91.6641 26.0599 91.7734 25.4505 91.9922 24.9141C92.2109 24.3724 92.5026 23.9141 92.8672 23.5391C93.2266 23.1693 93.6354 22.8854 94.0938 22.6875C94.5573 22.4896 95.0312 22.3906 95.5156 22.3906C96.125 22.3906 96.6562 22.4974 97.1094 22.7109C97.5677 22.9193 97.9479 23.2083 98.25 23.5781C98.5521 23.9531 98.776 24.3932 98.9219 24.8984C99.0729 25.4036 99.1484 25.9505 99.1484 26.5391V27.1875H93.1094V27.2422C93.1458 27.6536 93.2266 28.0156 93.3516 28.3281C93.4818 28.6406 93.6589 28.9167 93.8828 29.1562C94.112 29.4115 94.388 29.612 94.7109 29.7578C95.0339 29.9036 95.3906 29.9766 95.7812 29.9766C96.2969 29.9766 96.7552 29.8724 97.1562 29.6641C97.5573 29.4557 97.8906 29.1797 98.1562 28.8359L99.0391 29.5234C98.7578 29.9505 98.3359 30.3307 97.7734 30.6641C97.2161 30.9922 96.526 31.1562 95.7031 31.1562ZM95.5156 23.5781C95.224 23.5781 94.9479 23.6328 94.6875 23.7422C94.4271 23.8464 94.1927 24 93.9844 24.2031C93.776 24.4115 93.599 24.6667 93.4531 24.9688C93.3125 25.2656 93.2135 25.6094 93.1562 26H97.7031V25.9297C97.7031 25.6693 97.6536 25.3906 97.5547 25.0938C97.4557 24.7917 97.3177 24.5312 97.1406 24.3125C96.9635 24.0938 96.7396 23.9167 96.4688 23.7812C96.2031 23.6458 95.8854 23.5781 95.5156 23.5781ZM107.195 28.7578C107.195 28.5859 107.161 28.4323 107.094 28.2969C107.026 28.1562 106.911 28.0286 106.75 27.9141C106.589 27.7995 106.375 27.6953 106.109 27.6016C105.844 27.5026 105.513 27.4141 105.117 27.3359C104.633 27.237 104.19 27.1172 103.789 26.9766C103.393 26.8359 103.055 26.6667 102.773 26.4688C102.487 26.276 102.266 26.0495 102.109 25.7891C101.953 25.5234 101.875 25.2161 101.875 24.8672C101.875 24.5234 101.956 24.2031 102.117 23.9062C102.279 23.6042 102.505 23.3411 102.797 23.1172C103.089 22.8932 103.435 22.7161 103.836 22.5859C104.242 22.4557 104.688 22.3906 105.172 22.3906C105.693 22.3906 106.161 22.4583 106.578 22.5938C106.995 22.7292 107.349 22.9167 107.641 23.1562C107.932 23.3958 108.156 23.6771 108.312 24C108.474 24.3177 108.555 24.6615 108.555 25.0312H107.109C107.109 24.849 107.062 24.6719 106.969 24.5C106.875 24.3229 106.745 24.1667 106.578 24.0312C106.411 23.8958 106.208 23.7865 105.969 23.7031C105.734 23.6198 105.469 23.5781 105.172 23.5781C104.865 23.5781 104.594 23.612 104.359 23.6797C104.13 23.7474 103.94 23.8385 103.789 23.9531C103.633 24.0677 103.516 24.2005 103.438 24.3516C103.359 24.5026 103.32 24.6589 103.32 24.8203C103.32 24.987 103.352 25.1354 103.414 25.2656C103.477 25.3958 103.586 25.513 103.742 25.6172C103.893 25.7214 104.096 25.8151 104.352 25.8984C104.612 25.9818 104.94 26.0625 105.336 26.1406C105.857 26.25 106.323 26.3776 106.734 26.5234C107.146 26.6641 107.492 26.8333 107.773 27.0312C108.055 27.2344 108.268 27.4688 108.414 27.7344C108.565 28 108.641 28.3073 108.641 28.6562C108.641 29.0312 108.555 29.3724 108.383 29.6797C108.216 29.987 107.982 30.25 107.68 30.4688C107.378 30.6875 107.016 30.8568 106.594 30.9766C106.172 31.0964 105.711 31.1562 105.211 31.1562C104.638 31.1562 104.128 31.0807 103.68 30.9297C103.232 30.7734 102.854 30.5677 102.547 30.3125C102.234 30.0625 101.995 29.7708 101.828 29.4375C101.667 29.1042 101.586 28.7578 101.586 28.3984H103.031C103.052 28.6953 103.13 28.9453 103.266 29.1484C103.406 29.3516 103.581 29.5156 103.789 29.6406C103.992 29.7656 104.219 29.8542 104.469 29.9062C104.719 29.9583 104.966 29.9844 105.211 29.9844C105.596 29.9844 105.932 29.9401 106.219 29.8516C106.505 29.7578 106.729 29.6302 106.891 29.4688C106.99 29.3698 107.065 29.2604 107.117 29.1406C107.169 29.0208 107.195 28.8932 107.195 28.7578ZM113.719 27.0547L112.656 28.0781V31H111.203V19H112.656V26.3438L113.602 25.3281L116.375 22.5469H118.133L114.711 26.0703L118.656 31H116.82L113.719 27.0547ZM124.219 20.5V22.5469H127.438V23.6641H124.219V28.2578C124.219 28.5859 124.26 28.8568 124.344 29.0703C124.427 29.2839 124.542 29.4531 124.688 29.5781C124.833 29.7083 125 29.7995 125.188 29.8516C125.38 29.9036 125.583 29.9297 125.797 29.9297C125.953 29.9297 126.115 29.9219 126.281 29.9062C126.448 29.8854 126.612 29.862 126.773 29.8359C126.93 29.8099 127.076 29.7839 127.211 29.7578C127.352 29.7266 127.466 29.7005 127.555 29.6797L127.758 30.7031C127.638 30.776 127.492 30.8411 127.32 30.8984C127.148 30.9505 126.961 30.9948 126.758 31.0312C126.555 31.0729 126.339 31.1042 126.109 31.125C125.885 31.1458 125.661 31.1562 125.438 31.1562C125.062 31.1562 124.711 31.1042 124.383 31C124.06 30.8906 123.779 30.7188 123.539 30.4844C123.299 30.2552 123.109 29.9583 122.969 29.5938C122.833 29.224 122.766 28.7786 122.766 28.2578V23.6641H120.547V22.5469H122.766V20.5H124.219ZM130 26.6953C130 26.0859 130.089 25.5208 130.266 25C130.443 24.474 130.698 24.0182 131.031 23.6328C131.359 23.2474 131.76 22.9453 132.234 22.7266C132.708 22.5026 133.242 22.3906 133.836 22.3906C134.435 22.3906 134.971 22.5026 135.445 22.7266C135.924 22.9453 136.331 23.2474 136.664 23.6328C136.992 24.0182 137.245 24.474 137.422 25C137.599 25.5208 137.688 26.0859 137.688 26.6953V26.8672C137.688 27.4766 137.599 28.0417 137.422 28.5625C137.245 29.0833 136.992 29.5365 136.664 29.9219C136.331 30.3073 135.927 30.6094 135.453 30.8281C134.979 31.0469 134.445 31.1562 133.852 31.1562C133.253 31.1562 132.714 31.0469 132.234 30.8281C131.76 30.6094 131.359 30.3073 131.031 29.9219C130.698 29.5365 130.443 29.0833 130.266 28.5625C130.089 28.0417 130 27.4766 130 26.8672V26.6953ZM131.445 26.8672C131.445 27.2839 131.495 27.6823 131.594 28.0625C131.693 28.4375 131.844 28.7682 132.047 29.0547C132.245 29.3411 132.495 29.5677 132.797 29.7344C133.099 29.901 133.451 29.9844 133.852 29.9844C134.247 29.9844 134.594 29.901 134.891 29.7344C135.193 29.5677 135.445 29.3411 135.648 29.0547C135.846 28.7682 135.995 28.4375 136.094 28.0625C136.193 27.6823 136.242 27.2839 136.242 26.8672V26.6953C136.242 26.2839 136.19 25.8906 136.086 25.5156C135.987 25.1354 135.839 24.8021 135.641 24.5156C135.438 24.2292 135.185 24.0026 134.883 23.8359C134.586 23.6641 134.237 23.5781 133.836 23.5781C133.435 23.5781 133.086 23.6641 132.789 23.8359C132.492 24.0026 132.245 24.2292 132.047 24.5156C131.844 24.8021 131.693 25.1354 131.594 25.5156C131.495 25.8906 131.445 26.2839 131.445 26.6953V26.8672ZM140.008 34.25V22.5469H141.328L141.398 23.4688C141.513 23.3229 141.638 23.1927 141.773 23.0781C141.909 22.9583 142.055 22.8568 142.211 22.7734C142.43 22.6484 142.672 22.5547 142.938 22.4922C143.208 22.4245 143.497 22.3906 143.805 22.3906C144.346 22.3906 144.826 22.4974 145.242 22.7109C145.659 22.9245 146.008 23.2214 146.289 23.6016C146.57 23.9818 146.784 24.4375 146.93 24.9688C147.076 25.4948 147.148 26.0729 147.148 26.7031V26.8672C147.148 27.4714 147.076 28.0365 146.93 28.5625C146.784 29.0833 146.57 29.5365 146.289 29.9219C146.008 30.3073 145.659 30.6094 145.242 30.8281C144.831 31.0469 144.359 31.1562 143.828 31.1562C143.505 31.1562 143.203 31.1224 142.922 31.0547C142.646 30.987 142.396 30.8906 142.172 30.7656C142.036 30.6875 141.909 30.6016 141.789 30.5078C141.669 30.4089 141.557 30.3021 141.453 30.1875V34.25H140.008ZM145.703 26.7031C145.703 26.2917 145.656 25.901 145.562 25.5312C145.474 25.1562 145.336 24.8255 145.148 24.5391C144.956 24.2578 144.714 24.0339 144.422 23.8672C144.13 23.7005 143.781 23.6172 143.375 23.6172C143.151 23.6172 142.943 23.6432 142.75 23.6953C142.562 23.7474 142.393 23.8229 142.242 23.9219C142.076 24.0208 141.927 24.1432 141.797 24.2891C141.667 24.4349 141.552 24.5964 141.453 24.7734V28.8438C141.542 29 141.643 29.1458 141.758 29.2812C141.872 29.4167 142.003 29.5312 142.148 29.625C142.315 29.7344 142.5 29.8203 142.703 29.8828C142.911 29.9453 143.141 29.9766 143.391 29.9766C143.792 29.9766 144.138 29.8932 144.43 29.7266C144.721 29.5547 144.961 29.3255 145.148 29.0391C145.336 28.7526 145.474 28.4219 145.562 28.0469C145.656 27.6719 145.703 27.2786 145.703 26.8672V26.7031ZM88.6875 46.9766H83.9531V52H82.4922V40.625H89.4766V41.8594H83.9531V45.75H88.6875V46.9766ZM92.1953 40H96.5156V50.75H99.2734V52H92.1953V50.75H95.0703V41.2578H92.1953V40ZM101.172 47.6953C101.172 47.0859 101.26 46.5208 101.438 46C101.615 45.474 101.87 45.0182 102.203 44.6328C102.531 44.2474 102.932 43.9453 103.406 43.7266C103.88 43.5026 104.414 43.3906 105.008 43.3906C105.607 43.3906 106.143 43.5026 106.617 43.7266C107.096 43.9453 107.503 44.2474 107.836 44.6328C108.164 45.0182 108.417 45.474 108.594 46C108.771 46.5208 108.859 47.0859 108.859 47.6953V47.8672C108.859 48.4766 108.771 49.0417 108.594 49.5625C108.417 50.0833 108.164 50.5365 107.836 50.9219C107.503 51.3073 107.099 51.6094 106.625 51.8281C106.151 52.0469 105.617 52.1562 105.023 52.1562C104.424 52.1562 103.885 52.0469 103.406 51.8281C102.932 51.6094 102.531 51.3073 102.203 50.9219C101.87 50.5365 101.615 50.0833 101.438 49.5625C101.26 49.0417 101.172 48.4766 101.172 47.8672V47.6953ZM102.617 47.8672C102.617 48.2839 102.667 48.6823 102.766 49.0625C102.865 49.4375 103.016 49.7682 103.219 50.0547C103.417 50.3411 103.667 50.5677 103.969 50.7344C104.271 50.901 104.622 50.9844 105.023 50.9844C105.419 50.9844 105.766 50.901 106.062 50.7344C106.365 50.5677 106.617 50.3411 106.82 50.0547C107.018 49.7682 107.167 49.4375 107.266 49.0625C107.365 48.6823 107.414 48.2839 107.414 47.8672V47.6953C107.414 47.2839 107.362 46.8906 107.258 46.5156C107.159 46.1354 107.01 45.8021 106.812 45.5156C106.609 45.2292 106.357 45.0026 106.055 44.8359C105.758 44.6641 105.409 44.5781 105.008 44.5781C104.607 44.5781 104.258 44.6641 103.961 44.8359C103.664 45.0026 103.417 45.2292 103.219 45.5156C103.016 45.8021 102.865 46.1354 102.766 46.5156C102.667 46.8906 102.617 47.2839 102.617 47.6953V47.8672ZM112 52L110.203 43.5469H111.484L112.469 48.9375L112.641 50.1484L112.852 48.9375L114.203 43.5469H115.133L116.477 48.9375L116.703 50.2656L116.914 48.9375L117.852 43.5469H119.133L117.336 52H116.195L114.875 46.8203L114.656 45.5078L114.445 46.8203L113.141 52H112ZM126.414 49.7578C126.414 49.5859 126.38 49.4323 126.312 49.2969C126.245 49.1562 126.13 49.0286 125.969 48.9141C125.807 48.7995 125.594 48.6953 125.328 48.6016C125.062 48.5026 124.732 48.4141 124.336 48.3359C123.852 48.237 123.409 48.1172 123.008 47.9766C122.612 47.8359 122.273 47.6667 121.992 47.4688C121.706 47.276 121.484 47.0495 121.328 46.7891C121.172 46.5234 121.094 46.2161 121.094 45.8672C121.094 45.5234 121.174 45.2031 121.336 44.9062C121.497 44.6042 121.724 44.3411 122.016 44.1172C122.307 43.8932 122.654 43.7161 123.055 43.5859C123.461 43.4557 123.906 43.3906 124.391 43.3906C124.911 43.3906 125.38 43.4583 125.797 43.5938C126.214 43.7292 126.568 43.9167 126.859 44.1562C127.151 44.3958 127.375 44.6771 127.531 45C127.693 45.3177 127.773 45.6615 127.773 46.0312H126.328C126.328 45.849 126.281 45.6719 126.188 45.5C126.094 45.3229 125.964 45.1667 125.797 45.0312C125.63 44.8958 125.427 44.7865 125.188 44.7031C124.953 44.6198 124.688 44.5781 124.391 44.5781C124.083 44.5781 123.812 44.612 123.578 44.6797C123.349 44.7474 123.159 44.8385 123.008 44.9531C122.852 45.0677 122.734 45.2005 122.656 45.3516C122.578 45.5026 122.539 45.6589 122.539 45.8203C122.539 45.987 122.57 46.1354 122.633 46.2656C122.695 46.3958 122.805 46.513 122.961 46.6172C123.112 46.7214 123.315 46.8151 123.57 46.8984C123.831 46.9818 124.159 47.0625 124.555 47.1406C125.076 47.25 125.542 47.3776 125.953 47.5234C126.365 47.6641 126.711 47.8333 126.992 48.0312C127.273 48.2344 127.487 48.4688 127.633 48.7344C127.784 49 127.859 49.3073 127.859 49.6562C127.859 50.0312 127.773 50.3724 127.602 50.6797C127.435 50.987 127.201 51.25 126.898 51.4688C126.596 51.6875 126.234 51.8568 125.812 51.9766C125.391 52.0964 124.93 52.1562 124.43 52.1562C123.857 52.1562 123.346 52.0807 122.898 51.9297C122.451 51.7734 122.073 51.5677 121.766 51.3125C121.453 51.0625 121.214 50.7708 121.047 50.4375C120.885 50.1042 120.805 49.7578 120.805 49.3984H122.25C122.271 49.6953 122.349 49.9453 122.484 50.1484C122.625 50.3516 122.799 50.5156 123.008 50.6406C123.211 50.7656 123.438 50.8542 123.688 50.9062C123.938 50.9583 124.185 50.9844 124.43 50.9844C124.815 50.9844 125.151 50.9401 125.438 50.8516C125.724 50.7578 125.948 50.6302 126.109 50.4688C126.208 50.3698 126.284 50.2604 126.336 50.1406C126.388 50.0208 126.414 49.8932 126.414 49.7578ZM131.852 44.8047C131.966 44.6328 132.094 44.4766 132.234 44.3359C132.375 44.1901 132.523 44.0625 132.68 43.9531C132.93 43.7708 133.203 43.6328 133.5 43.5391C133.802 43.4453 134.122 43.3958 134.461 43.3906C134.904 43.3906 135.305 43.4557 135.664 43.5859C136.029 43.7109 136.339 43.9089 136.594 44.1797C136.849 44.4505 137.044 44.7943 137.18 45.2109C137.32 45.6224 137.391 46.112 137.391 46.6797V52H135.945V46.6641C135.945 46.3307 135.906 46.0391 135.828 45.7891C135.75 45.5339 135.635 45.3229 135.484 45.1562C135.323 44.974 135.12 44.8385 134.875 44.75C134.63 44.6562 134.349 44.612 134.031 44.6172C133.771 44.6172 133.523 44.6536 133.289 44.7266C133.055 44.7995 132.839 44.9036 132.641 45.0391C132.484 45.1432 132.339 45.2656 132.203 45.4062C132.073 45.5417 131.956 45.6927 131.852 45.8594V52H130.406V40H131.852V44.8047ZM143.75 52.1562C143.156 52.1562 142.609 52.0547 142.109 51.8516C141.615 51.6484 141.19 51.3646 140.836 51C140.482 50.6354 140.206 50.2031 140.008 49.7031C139.81 49.2031 139.711 48.6589 139.711 48.0703V47.7422C139.711 47.0599 139.82 46.4505 140.039 45.9141C140.258 45.3724 140.549 44.9141 140.914 44.5391C141.273 44.1693 141.682 43.8854 142.141 43.6875C142.604 43.4896 143.078 43.3906 143.562 43.3906C144.172 43.3906 144.703 43.4974 145.156 43.7109C145.615 43.9193 145.995 44.2083 146.297 44.5781C146.599 44.9531 146.823 45.3932 146.969 45.8984C147.12 46.4036 147.195 46.9505 147.195 47.5391V48.1875H141.156V48.2422C141.193 48.6536 141.273 49.0156 141.398 49.3281C141.529 49.6406 141.706 49.9167 141.93 50.1562C142.159 50.4115 142.435 50.612 142.758 50.7578C143.081 50.9036 143.438 50.9766 143.828 50.9766C144.344 50.9766 144.802 50.8724 145.203 50.6641C145.604 50.4557 145.938 50.1797 146.203 49.8359L147.086 50.5234C146.805 50.9505 146.383 51.3307 145.82 51.6641C145.263 51.9922 144.573 52.1562 143.75 52.1562ZM143.562 44.5781C143.271 44.5781 142.995 44.6328 142.734 44.7422C142.474 44.8464 142.24 45 142.031 45.2031C141.823 45.4115 141.646 45.6667 141.5 45.9688C141.359 46.2656 141.26 46.6094 141.203 47H145.75V46.9297C145.75 46.6693 145.701 46.3906 145.602 46.0938C145.503 45.7917 145.365 45.5312 145.188 45.3125C145.01 45.0938 144.786 44.9167 144.516 44.7812C144.25 44.6458 143.932 44.5781 143.562 44.5781ZM153.359 52.1562C152.766 52.1562 152.219 52.0547 151.719 51.8516C151.224 51.6484 150.799 51.3646 150.445 51C150.091 50.6354 149.815 50.2031 149.617 49.7031C149.419 49.2031 149.32 48.6589 149.32 48.0703V47.7422C149.32 47.0599 149.43 46.4505 149.648 45.9141C149.867 45.3724 150.159 44.9141 150.523 44.5391C150.883 44.1693 151.292 43.8854 151.75 43.6875C152.214 43.4896 152.688 43.3906 153.172 43.3906C153.781 43.3906 154.312 43.4974 154.766 43.7109C155.224 43.9193 155.604 44.2083 155.906 44.5781C156.208 44.9531 156.432 45.3932 156.578 45.8984C156.729 46.4036 156.805 46.9505 156.805 47.5391V48.1875H150.766V48.2422C150.802 48.6536 150.883 49.0156 151.008 49.3281C151.138 49.6406 151.315 49.9167 151.539 50.1562C151.768 50.4115 152.044 50.612 152.367 50.7578C152.69 50.9036 153.047 50.9766 153.438 50.9766C153.953 50.9766 154.411 50.8724 154.812 50.6641C155.214 50.4557 155.547 50.1797 155.812 49.8359L156.695 50.5234C156.414 50.9505 155.992 51.3307 155.43 51.6641C154.872 51.9922 154.182 52.1562 153.359 52.1562ZM153.172 44.5781C152.88 44.5781 152.604 44.6328 152.344 44.7422C152.083 44.8464 151.849 45 151.641 45.2031C151.432 45.4115 151.255 45.6667 151.109 45.9688C150.969 46.2656 150.87 46.6094 150.812 47H155.359V46.9297C155.359 46.6693 155.31 46.3906 155.211 46.0938C155.112 45.7917 154.974 45.5312 154.797 45.3125C154.62 45.0938 154.396 44.9167 154.125 44.7812C153.859 44.6458 153.542 44.5781 153.172 44.5781ZM162.656 41.5V43.5469H165.875V44.6641H162.656V49.2578C162.656 49.5859 162.698 49.8568 162.781 50.0703C162.865 50.2839 162.979 50.4531 163.125 50.5781C163.271 50.7083 163.438 50.7995 163.625 50.8516C163.818 50.9036 164.021 50.9297 164.234 50.9297C164.391 50.9297 164.552 50.9219 164.719 50.9062C164.885 50.8854 165.049 50.862 165.211 50.8359C165.367 50.8099 165.513 50.7839 165.648 50.7578C165.789 50.7266 165.904 50.7005 165.992 50.6797L166.195 51.7031C166.076 51.776 165.93 51.8411 165.758 51.8984C165.586 51.9505 165.398 51.9948 165.195 52.0312C164.992 52.0729 164.776 52.1042 164.547 52.125C164.323 52.1458 164.099 52.1562 163.875 52.1562C163.5 52.1562 163.148 52.1042 162.82 52C162.497 51.8906 162.216 51.7188 161.977 51.4844C161.737 51.2552 161.547 50.9583 161.406 50.5938C161.271 50.224 161.203 49.7786 161.203 49.2578V44.6641H158.984V43.5469H161.203V41.5H162.656ZM87.9766 70.7578C87.9766 70.5859 87.9427 70.4323 87.875 70.2969C87.8073 70.1562 87.6927 70.0286 87.5312 69.9141C87.3698 69.7995 87.1562 69.6953 86.8906 69.6016C86.625 69.5026 86.2943 69.4141 85.8984 69.3359C85.4141 69.237 84.9714 69.1172 84.5703 68.9766C84.1745 68.8359 83.8359 68.6667 83.5547 68.4688C83.2682 68.276 83.0469 68.0495 82.8906 67.7891C82.7344 67.5234 82.6562 67.2161 82.6562 66.8672C82.6562 66.5234 82.737 66.2031 82.8984 65.9062C83.0599 65.6042 83.2865 65.3411 83.5781 65.1172C83.8698 64.8932 84.2161 64.7161 84.6172 64.5859C85.0234 64.4557 85.4688 64.3906 85.9531 64.3906C86.474 64.3906 86.9427 64.4583 87.3594 64.5938C87.776 64.7292 88.1302 64.9167 88.4219 65.1562C88.7135 65.3958 88.9375 65.6771 89.0938 66C89.2552 66.3177 89.3359 66.6615 89.3359 67.0312H87.8906C87.8906 66.849 87.8438 66.6719 87.75 66.5C87.6562 66.3229 87.526 66.1667 87.3594 66.0312C87.1927 65.8958 86.9896 65.7865 86.75 65.7031C86.5156 65.6198 86.25 65.5781 85.9531 65.5781C85.6458 65.5781 85.375 65.612 85.1406 65.6797C84.9115 65.7474 84.7214 65.8385 84.5703 65.9531C84.4141 66.0677 84.2969 66.2005 84.2188 66.3516C84.1406 66.5026 84.1016 66.6589 84.1016 66.8203C84.1016 66.987 84.1328 67.1354 84.1953 67.2656C84.2578 67.3958 84.3672 67.513 84.5234 67.6172C84.6745 67.7214 84.8776 67.8151 85.1328 67.8984C85.3932 67.9818 85.7214 68.0625 86.1172 68.1406C86.638 68.25 87.1042 68.3776 87.5156 68.5234C87.9271 68.6641 88.2734 68.8333 88.5547 69.0312C88.8359 69.2344 89.0495 69.4688 89.1953 69.7344C89.3464 70 89.4219 70.3073 89.4219 70.6562C89.4219 71.0312 89.3359 71.3724 89.1641 71.6797C88.9974 71.987 88.763 72.25 88.4609 72.4688C88.1589 72.6875 87.7969 72.8568 87.375 72.9766C86.9531 73.0964 86.4922 73.1562 85.9922 73.1562C85.4193 73.1562 84.9089 73.0807 84.4609 72.9297C84.013 72.7734 83.6354 72.5677 83.3281 72.3125C83.0156 72.0625 82.776 71.7708 82.6094 71.4375C82.4479 71.1042 82.3672 70.7578 82.3672 70.3984H83.8125C83.8333 70.6953 83.9115 70.9453 84.0469 71.1484C84.1875 71.3516 84.362 71.5156 84.5703 71.6406C84.7734 71.7656 85 71.8542 85.25 71.9062C85.5 71.9583 85.7474 71.9844 85.9922 71.9844C86.3776 71.9844 86.7135 71.9401 87 71.8516C87.2865 71.7578 87.5104 71.6302 87.6719 71.4688C87.7708 71.3698 87.8464 71.2604 87.8984 71.1406C87.9505 71.0208 87.9766 70.8932 87.9766 70.7578ZM92.1953 64.5469H96.5156V71.75H99.2734V73H92.1953V71.75H95.0703V65.8047H92.1953V64.5469ZM94.8828 62.3281C94.8828 62.2031 94.901 62.0859 94.9375 61.9766C94.9792 61.8672 95.0417 61.7734 95.125 61.6953C95.1927 61.6276 95.2786 61.5755 95.3828 61.5391C95.4922 61.4974 95.6146 61.4766 95.75 61.4766C95.8854 61.4766 96.0052 61.4974 96.1094 61.5391C96.2135 61.5755 96.2995 61.6276 96.3672 61.6953C96.4505 61.7682 96.513 61.8594 96.5547 61.9688C96.5964 62.0781 96.6172 62.1979 96.6172 62.3281C96.6172 62.5625 96.5443 62.7578 96.3984 62.9141C96.2526 63.0703 96.0365 63.1484 95.75 63.1484C95.4583 63.1484 95.2396 63.0703 95.0938 62.9141C94.9531 62.7578 94.8828 62.5625 94.8828 62.3281ZM102.242 64.5469L102.281 65.3438C102.453 65.0469 102.677 64.8151 102.953 64.6484C103.234 64.4818 103.573 64.3958 103.969 64.3906C104.193 64.3906 104.393 64.4167 104.57 64.4688C104.753 64.5156 104.911 64.5859 105.047 64.6797C105.146 64.7526 105.234 64.8411 105.312 64.9453C105.396 65.0495 105.466 65.1667 105.523 65.2969C105.596 65.1771 105.682 65.0651 105.781 64.9609C105.88 64.8568 105.987 64.7656 106.102 64.6875C106.247 64.599 106.409 64.5286 106.586 64.4766C106.768 64.4245 106.966 64.3958 107.18 64.3906C107.471 64.3906 107.734 64.4349 107.969 64.5234C108.203 64.6068 108.401 64.7318 108.562 64.8984C108.74 65.0859 108.875 65.3307 108.969 65.6328C109.062 65.9297 109.109 66.2812 109.109 66.6875V73H107.734V66.6719C107.734 66.4948 107.714 66.3385 107.672 66.2031C107.63 66.0677 107.57 65.9557 107.492 65.8672C107.409 65.7839 107.305 65.7214 107.18 65.6797C107.06 65.638 106.919 65.6172 106.758 65.6172C106.586 65.6172 106.438 65.6406 106.312 65.6875C106.188 65.7344 106.083 65.7969 106 65.875C105.917 65.9583 105.852 66.0547 105.805 66.1641C105.758 66.2682 105.727 66.3854 105.711 66.5156C105.711 66.5417 105.711 66.5677 105.711 66.5938C105.711 66.6146 105.711 66.6406 105.711 66.6719V73H104.336V66.6641C104.336 66.487 104.315 66.3307 104.273 66.1953C104.237 66.0599 104.177 65.9479 104.094 65.8594C104.016 65.776 103.917 65.7161 103.797 65.6797C103.682 65.638 103.547 65.6172 103.391 65.6172C103.219 65.6172 103.068 65.638 102.938 65.6797C102.812 65.7161 102.706 65.7708 102.617 65.8438C102.549 65.901 102.49 65.9661 102.438 66.0391C102.391 66.112 102.352 66.1901 102.32 66.2734V73H100.945V64.5469H102.242ZM116.758 73L116.672 71.8359C116.391 72.2526 116.039 72.5781 115.617 72.8125C115.195 73.0417 114.708 73.1562 114.156 73.1562C113.714 73.1562 113.312 73.0885 112.953 72.9531C112.594 72.8125 112.286 72.5964 112.031 72.3047C111.776 72.013 111.578 71.6432 111.438 71.1953C111.302 70.7422 111.234 70.2005 111.234 69.5703V64.5469H112.68V69.5859C112.68 70.0443 112.716 70.4245 112.789 70.7266C112.862 71.0286 112.971 71.2682 113.117 71.4453C113.263 71.6276 113.44 71.7552 113.648 71.8281C113.862 71.901 114.107 71.9375 114.383 71.9375C114.706 71.9375 114.995 71.901 115.25 71.8281C115.505 71.75 115.727 71.6432 115.914 71.5078C116.07 71.3984 116.206 71.2682 116.32 71.1172C116.44 70.9609 116.539 70.7917 116.617 70.6094V64.5469H118.07V73H116.758ZM121.023 61H125.344V71.75H128.102V73H121.023V71.75H123.898V62.2578H121.023V61ZM135.961 73C135.904 72.8906 135.857 72.7552 135.82 72.5938C135.789 72.4271 135.766 72.2552 135.75 72.0781C135.604 72.224 135.44 72.362 135.258 72.4922C135.081 72.6224 134.885 72.737 134.672 72.8359C134.453 72.9349 134.221 73.013 133.977 73.0703C133.732 73.1276 133.471 73.1562 133.195 73.1562C132.747 73.1562 132.341 73.0911 131.977 72.9609C131.617 72.8307 131.312 72.6536 131.062 72.4297C130.807 72.2109 130.609 71.9505 130.469 71.6484C130.333 71.3411 130.266 71.0104 130.266 70.6562C130.266 70.1927 130.357 69.7865 130.539 69.4375C130.727 69.0885 130.99 68.7969 131.328 68.5625C131.667 68.3333 132.073 68.1615 132.547 68.0469C133.026 67.9323 133.56 67.875 134.148 67.875H135.727V67.2109C135.727 66.9557 135.68 66.7266 135.586 66.5234C135.492 66.3203 135.359 66.1458 135.188 66C135.016 65.8594 134.805 65.75 134.555 65.6719C134.31 65.5938 134.034 65.5547 133.727 65.5547C133.44 65.5547 133.182 65.5911 132.953 65.6641C132.729 65.737 132.539 65.8333 132.383 65.9531C132.227 66.0729 132.104 66.2161 132.016 66.3828C131.932 66.5443 131.891 66.7135 131.891 66.8906H130.438C130.443 66.5833 130.521 66.2812 130.672 65.9844C130.828 65.6875 131.052 65.4193 131.344 65.1797C131.63 64.9453 131.979 64.7552 132.391 64.6094C132.807 64.4635 133.279 64.3906 133.805 64.3906C134.284 64.3906 134.729 64.4505 135.141 64.5703C135.552 64.6849 135.909 64.8594 136.211 65.0938C136.508 65.3333 136.742 65.6302 136.914 65.9844C137.086 66.3385 137.172 66.7526 137.172 67.2266V71.1562C137.172 71.4375 137.198 71.737 137.25 72.0547C137.302 72.3672 137.375 72.6406 137.469 72.875V73H135.961ZM133.406 71.8984C133.688 71.8984 133.951 71.862 134.195 71.7891C134.44 71.7161 134.664 71.6198 134.867 71.5C135.065 71.3802 135.237 71.2448 135.383 71.0938C135.529 70.9375 135.643 70.776 135.727 70.6094V68.8984H134.383C133.883 68.8984 133.445 68.9427 133.07 69.0312C132.701 69.1146 132.406 69.2448 132.188 69.4219C132.031 69.5469 131.911 69.6953 131.828 69.8672C131.75 70.0391 131.711 70.2344 131.711 70.4531C131.711 70.6615 131.745 70.8542 131.812 71.0312C131.885 71.2083 131.992 71.3594 132.133 71.4844C132.273 71.6146 132.451 71.7161 132.664 71.7891C132.878 71.862 133.125 71.8984 133.406 71.8984ZM143.438 62.5V64.5469H146.656V65.6641H143.438V70.2578C143.438 70.5859 143.479 70.8568 143.562 71.0703C143.646 71.2839 143.76 71.4531 143.906 71.5781C144.052 71.7083 144.219 71.7995 144.406 71.8516C144.599 71.9036 144.802 71.9297 145.016 71.9297C145.172 71.9297 145.333 71.9219 145.5 71.9062C145.667 71.8854 145.831 71.862 145.992 71.8359C146.148 71.8099 146.294 71.7839 146.43 71.7578C146.57 71.7266 146.685 71.7005 146.773 71.6797L146.977 72.7031C146.857 72.776 146.711 72.8411 146.539 72.8984C146.367 72.9505 146.18 72.9948 145.977 73.0312C145.773 73.0729 145.557 73.1042 145.328 73.125C145.104 73.1458 144.88 73.1562 144.656 73.1562C144.281 73.1562 143.93 73.1042 143.602 73C143.279 72.8906 142.997 72.7188 142.758 72.4844C142.518 72.2552 142.328 71.9583 142.188 71.5938C142.052 71.224 141.984 70.7786 141.984 70.2578V65.6641H139.766V64.5469H141.984V62.5H143.438ZM149.219 68.6953C149.219 68.0859 149.307 67.5208 149.484 67C149.661 66.474 149.917 66.0182 150.25 65.6328C150.578 65.2474 150.979 64.9453 151.453 64.7266C151.927 64.5026 152.461 64.3906 153.055 64.3906C153.654 64.3906 154.19 64.5026 154.664 64.7266C155.143 64.9453 155.549 65.2474 155.883 65.6328C156.211 66.0182 156.464 66.474 156.641 67C156.818 67.5208 156.906 68.0859 156.906 68.6953V68.8672C156.906 69.4766 156.818 70.0417 156.641 70.5625C156.464 71.0833 156.211 71.5365 155.883 71.9219C155.549 72.3073 155.146 72.6094 154.672 72.8281C154.198 73.0469 153.664 73.1562 153.07 73.1562C152.471 73.1562 151.932 73.0469 151.453 72.8281C150.979 72.6094 150.578 72.3073 150.25 71.9219C149.917 71.5365 149.661 71.0833 149.484 70.5625C149.307 70.0417 149.219 69.4766 149.219 68.8672V68.6953ZM150.664 68.8672C150.664 69.2839 150.714 69.6823 150.812 70.0625C150.911 70.4375 151.062 70.7682 151.266 71.0547C151.464 71.3411 151.714 71.5677 152.016 71.7344C152.318 71.901 152.669 71.9844 153.07 71.9844C153.466 71.9844 153.812 71.901 154.109 71.7344C154.411 71.5677 154.664 71.3411 154.867 71.0547C155.065 70.7682 155.214 70.4375 155.312 70.0625C155.411 69.6823 155.461 69.2839 155.461 68.8672V68.6953C155.461 68.2839 155.409 67.8906 155.305 67.5156C155.206 67.1354 155.057 66.8021 154.859 66.5156C154.656 66.2292 154.404 66.0026 154.102 65.8359C153.805 65.6641 153.456 65.5781 153.055 65.5781C152.654 65.5781 152.305 65.6641 152.008 65.8359C151.711 66.0026 151.464 66.2292 151.266 66.5156C151.062 66.8021 150.911 67.1354 150.812 67.5156C150.714 67.8906 150.664 68.2839 150.664 68.6953V68.8672ZM164.773 64.3906C165.039 64.3906 165.315 64.4089 165.602 64.4453C165.893 64.4818 166.112 64.5312 166.258 64.5938L166.062 66.0078C165.781 65.9453 165.513 65.901 165.258 65.875C165.008 65.8438 164.745 65.8281 164.469 65.8281C164.115 65.8281 163.794 65.8724 163.508 65.9609C163.221 66.0443 162.971 66.1693 162.758 66.3359C162.565 66.4818 162.396 66.6615 162.25 66.875C162.109 67.0833 161.992 67.3177 161.898 67.5781V73H160.445V64.5469H161.82L161.883 65.6797L161.891 65.8906C162.234 65.4271 162.646 65.0625 163.125 64.7969C163.609 64.526 164.159 64.3906 164.773 64.3906ZM174.461 70.7578C174.461 70.5859 174.427 70.4323 174.359 70.2969C174.292 70.1562 174.177 70.0286 174.016 69.9141C173.854 69.7995 173.641 69.6953 173.375 69.6016C173.109 69.5026 172.779 69.4141 172.383 69.3359C171.898 69.237 171.456 69.1172 171.055 68.9766C170.659 68.8359 170.32 68.6667 170.039 68.4688C169.753 68.276 169.531 68.0495 169.375 67.7891C169.219 67.5234 169.141 67.2161 169.141 66.8672C169.141 66.5234 169.221 66.2031 169.383 65.9062C169.544 65.6042 169.771 65.3411 170.062 65.1172C170.354 64.8932 170.701 64.7161 171.102 64.5859C171.508 64.4557 171.953 64.3906 172.438 64.3906C172.958 64.3906 173.427 64.4583 173.844 64.5938C174.26 64.7292 174.615 64.9167 174.906 65.1562C175.198 65.3958 175.422 65.6771 175.578 66C175.74 66.3177 175.82 66.6615 175.82 67.0312H174.375C174.375 66.849 174.328 66.6719 174.234 66.5C174.141 66.3229 174.01 66.1667 173.844 66.0312C173.677 65.8958 173.474 65.7865 173.234 65.7031C173 65.6198 172.734 65.5781 172.438 65.5781C172.13 65.5781 171.859 65.612 171.625 65.6797C171.396 65.7474 171.206 65.8385 171.055 65.9531C170.898 66.0677 170.781 66.2005 170.703 66.3516C170.625 66.5026 170.586 66.6589 170.586 66.8203C170.586 66.987 170.617 67.1354 170.68 67.2656C170.742 67.3958 170.852 67.513 171.008 67.6172C171.159 67.7214 171.362 67.8151 171.617 67.8984C171.878 67.9818 172.206 68.0625 172.602 68.1406C173.122 68.25 173.589 68.3776 174 68.5234C174.411 68.6641 174.758 68.8333 175.039 69.0312C175.32 69.2344 175.534 69.4688 175.68 69.7344C175.831 70 175.906 70.3073 175.906 70.6562C175.906 71.0312 175.82 71.3724 175.648 71.6797C175.482 71.987 175.247 72.25 174.945 72.4688C174.643 72.6875 174.281 72.8568 173.859 72.9766C173.438 73.0964 172.977 73.1562 172.477 73.1562C171.904 73.1562 171.393 73.0807 170.945 72.9297C170.497 72.7734 170.12 72.5677 169.812 72.3125C169.5 72.0625 169.26 71.7708 169.094 71.4375C168.932 71.1042 168.852 70.7578 168.852 70.3984H170.297C170.318 70.6953 170.396 70.9453 170.531 71.1484C170.672 71.3516 170.846 71.5156 171.055 71.6406C171.258 71.7656 171.484 71.8542 171.734 71.9062C171.984 71.9583 172.232 71.9844 172.477 71.9844C172.862 71.9844 173.198 71.9401 173.484 71.8516C173.771 71.7578 173.995 71.6302 174.156 71.4688C174.255 71.3698 174.331 71.2604 174.383 71.1406C174.435 71.0208 174.461 70.8932 174.461 70.7578Z" fill="#20043D"/>
<path d="M406.945 244.625L408.797 250.312L410.797 244.625H412.594V256H411.188V251.461L411.305 246.711L409.203 252.836H408.375L406.445 246.875L406.562 251.461V256H405.156V244.625H406.945ZM420.523 256C420.466 255.891 420.419 255.755 420.383 255.594C420.352 255.427 420.328 255.255 420.312 255.078C420.167 255.224 420.003 255.362 419.82 255.492C419.643 255.622 419.448 255.737 419.234 255.836C419.016 255.935 418.784 256.013 418.539 256.07C418.294 256.128 418.034 256.156 417.758 256.156C417.31 256.156 416.904 256.091 416.539 255.961C416.18 255.831 415.875 255.654 415.625 255.43C415.37 255.211 415.172 254.951 415.031 254.648C414.896 254.341 414.828 254.01 414.828 253.656C414.828 253.193 414.919 252.786 415.102 252.438C415.289 252.089 415.552 251.797 415.891 251.562C416.229 251.333 416.635 251.161 417.109 251.047C417.589 250.932 418.122 250.875 418.711 250.875H420.289V250.211C420.289 249.956 420.242 249.727 420.148 249.523C420.055 249.32 419.922 249.146 419.75 249C419.578 248.859 419.367 248.75 419.117 248.672C418.872 248.594 418.596 248.555 418.289 248.555C418.003 248.555 417.745 248.591 417.516 248.664C417.292 248.737 417.102 248.833 416.945 248.953C416.789 249.073 416.667 249.216 416.578 249.383C416.495 249.544 416.453 249.714 416.453 249.891H415C415.005 249.583 415.083 249.281 415.234 248.984C415.391 248.688 415.615 248.419 415.906 248.18C416.193 247.945 416.542 247.755 416.953 247.609C417.37 247.464 417.841 247.391 418.367 247.391C418.846 247.391 419.292 247.451 419.703 247.57C420.115 247.685 420.471 247.859 420.773 248.094C421.07 248.333 421.305 248.63 421.477 248.984C421.648 249.339 421.734 249.753 421.734 250.227V254.156C421.734 254.438 421.76 254.737 421.812 255.055C421.865 255.367 421.938 255.641 422.031 255.875V256H420.523ZM417.969 254.898C418.25 254.898 418.513 254.862 418.758 254.789C419.003 254.716 419.227 254.62 419.43 254.5C419.628 254.38 419.799 254.245 419.945 254.094C420.091 253.938 420.206 253.776 420.289 253.609V251.898H418.945C418.445 251.898 418.008 251.943 417.633 252.031C417.263 252.115 416.969 252.245 416.75 252.422C416.594 252.547 416.474 252.695 416.391 252.867C416.312 253.039 416.273 253.234 416.273 253.453C416.273 253.661 416.307 253.854 416.375 254.031C416.448 254.208 416.555 254.359 416.695 254.484C416.836 254.615 417.013 254.716 417.227 254.789C417.44 254.862 417.688 254.898 417.969 254.898ZM428.18 254.984C428.44 254.984 428.693 254.943 428.938 254.859C429.188 254.776 429.409 254.659 429.602 254.508C429.794 254.362 429.948 254.19 430.062 253.992C430.182 253.789 430.245 253.57 430.25 253.336H431.617C431.612 253.711 431.513 254.07 431.32 254.414C431.133 254.753 430.88 255.049 430.562 255.305C430.245 255.565 429.88 255.773 429.469 255.93C429.057 256.081 428.628 256.156 428.18 256.156C427.539 256.156 426.979 256.042 426.5 255.812C426.021 255.583 425.622 255.273 425.305 254.883C424.982 254.497 424.74 254.052 424.578 253.547C424.417 253.036 424.336 252.5 424.336 251.938V251.609C424.336 251.052 424.417 250.518 424.578 250.008C424.74 249.497 424.982 249.047 425.305 248.656C425.622 248.271 426.021 247.964 426.5 247.734C426.979 247.505 427.539 247.391 428.18 247.391C428.68 247.391 429.138 247.471 429.555 247.633C429.977 247.789 430.341 248.003 430.648 248.273C430.951 248.549 431.188 248.875 431.359 249.25C431.531 249.625 431.617 250.026 431.617 250.453H430.25C430.245 250.198 430.188 249.958 430.078 249.734C429.974 249.505 429.831 249.305 429.648 249.133C429.466 248.961 429.247 248.826 428.992 248.727C428.742 248.628 428.471 248.578 428.18 248.578C427.732 248.578 427.354 248.669 427.047 248.852C426.745 249.029 426.5 249.26 426.312 249.547C426.125 249.839 425.99 250.164 425.906 250.523C425.828 250.883 425.789 251.245 425.789 251.609V251.938C425.789 252.307 425.828 252.674 425.906 253.039C425.99 253.398 426.125 253.721 426.312 254.008C426.495 254.299 426.737 254.536 427.039 254.719C427.346 254.896 427.727 254.984 428.18 254.984ZM435.633 248.805C435.747 248.633 435.875 248.477 436.016 248.336C436.156 248.19 436.305 248.062 436.461 247.953C436.711 247.771 436.984 247.633 437.281 247.539C437.583 247.445 437.904 247.396 438.242 247.391C438.685 247.391 439.086 247.456 439.445 247.586C439.81 247.711 440.12 247.909 440.375 248.18C440.63 248.451 440.826 248.794 440.961 249.211C441.102 249.622 441.172 250.112 441.172 250.68V256H439.727V250.664C439.727 250.331 439.688 250.039 439.609 249.789C439.531 249.534 439.417 249.323 439.266 249.156C439.104 248.974 438.901 248.839 438.656 248.75C438.411 248.656 438.13 248.612 437.812 248.617C437.552 248.617 437.305 248.654 437.07 248.727C436.836 248.799 436.62 248.904 436.422 249.039C436.266 249.143 436.12 249.266 435.984 249.406C435.854 249.542 435.737 249.693 435.633 249.859V256H434.188V244H435.633V248.805ZM444.023 247.547H448.344V254.75H451.102V256H444.023V254.75H446.898V248.805H444.023V247.547ZM446.711 245.328C446.711 245.203 446.729 245.086 446.766 244.977C446.807 244.867 446.87 244.773 446.953 244.695C447.021 244.628 447.107 244.576 447.211 244.539C447.32 244.497 447.443 244.477 447.578 244.477C447.714 244.477 447.833 244.497 447.938 244.539C448.042 244.576 448.128 244.628 448.195 244.695C448.279 244.768 448.341 244.859 448.383 244.969C448.424 245.078 448.445 245.198 448.445 245.328C448.445 245.562 448.372 245.758 448.227 245.914C448.081 246.07 447.865 246.148 447.578 246.148C447.286 246.148 447.068 246.07 446.922 245.914C446.781 245.758 446.711 245.562 446.711 245.328ZM453.406 256V247.547H454.703L454.805 248.797C454.93 248.62 455.065 248.458 455.211 248.312C455.362 248.161 455.521 248.031 455.688 247.922C455.938 247.755 456.208 247.628 456.5 247.539C456.797 247.445 457.109 247.396 457.438 247.391C457.88 247.391 458.281 247.453 458.641 247.578C459.005 247.703 459.315 247.898 459.57 248.164C459.826 248.43 460.021 248.768 460.156 249.18C460.297 249.586 460.367 250.07 460.367 250.633V256H458.922V250.664C458.922 250.289 458.88 249.971 458.797 249.711C458.714 249.451 458.591 249.24 458.43 249.078C458.263 248.917 458.06 248.799 457.82 248.727C457.586 248.654 457.315 248.617 457.008 248.617C456.742 248.617 456.495 248.656 456.266 248.734C456.036 248.807 455.826 248.909 455.633 249.039C455.477 249.154 455.331 249.286 455.195 249.438C455.065 249.589 454.951 249.755 454.852 249.938V256H453.406ZM466.75 256.156C466.156 256.156 465.609 256.055 465.109 255.852C464.615 255.648 464.19 255.365 463.836 255C463.482 254.635 463.206 254.203 463.008 253.703C462.81 253.203 462.711 252.659 462.711 252.07V251.742C462.711 251.06 462.82 250.451 463.039 249.914C463.258 249.372 463.549 248.914 463.914 248.539C464.273 248.169 464.682 247.885 465.141 247.688C465.604 247.49 466.078 247.391 466.562 247.391C467.172 247.391 467.703 247.497 468.156 247.711C468.615 247.919 468.995 248.208 469.297 248.578C469.599 248.953 469.823 249.393 469.969 249.898C470.12 250.404 470.195 250.951 470.195 251.539V252.188H464.156V252.242C464.193 252.654 464.273 253.016 464.398 253.328C464.529 253.641 464.706 253.917 464.93 254.156C465.159 254.411 465.435 254.612 465.758 254.758C466.081 254.904 466.438 254.977 466.828 254.977C467.344 254.977 467.802 254.872 468.203 254.664C468.604 254.456 468.938 254.18 469.203 253.836L470.086 254.523C469.805 254.951 469.383 255.331 468.82 255.664C468.263 255.992 467.573 256.156 466.75 256.156ZM466.562 248.578C466.271 248.578 465.995 248.633 465.734 248.742C465.474 248.846 465.24 249 465.031 249.203C464.823 249.411 464.646 249.667 464.5 249.969C464.359 250.266 464.26 250.609 464.203 251H468.75V250.93C468.75 250.669 468.701 250.391 468.602 250.094C468.503 249.792 468.365 249.531 468.188 249.312C468.01 249.094 467.786 248.917 467.516 248.781C467.25 248.646 466.932 248.578 466.562 248.578ZM406.992 275.773H412.555V277H405.547V265.625H406.992V275.773ZM418.703 277.156C418.109 277.156 417.562 277.055 417.062 276.852C416.568 276.648 416.143 276.365 415.789 276C415.435 275.635 415.159 275.203 414.961 274.703C414.763 274.203 414.664 273.659 414.664 273.07V272.742C414.664 272.06 414.773 271.451 414.992 270.914C415.211 270.372 415.503 269.914 415.867 269.539C416.227 269.169 416.635 268.885 417.094 268.688C417.557 268.49 418.031 268.391 418.516 268.391C419.125 268.391 419.656 268.497 420.109 268.711C420.568 268.919 420.948 269.208 421.25 269.578C421.552 269.953 421.776 270.393 421.922 270.898C422.073 271.404 422.148 271.951 422.148 272.539V273.188H416.109V273.242C416.146 273.654 416.227 274.016 416.352 274.328C416.482 274.641 416.659 274.917 416.883 275.156C417.112 275.411 417.388 275.612 417.711 275.758C418.034 275.904 418.391 275.977 418.781 275.977C419.297 275.977 419.755 275.872 420.156 275.664C420.557 275.456 420.891 275.18 421.156 274.836L422.039 275.523C421.758 275.951 421.336 276.331 420.773 276.664C420.216 276.992 419.526 277.156 418.703 277.156ZM418.516 269.578C418.224 269.578 417.948 269.633 417.688 269.742C417.427 269.846 417.193 270 416.984 270.203C416.776 270.411 416.599 270.667 416.453 270.969C416.312 271.266 416.214 271.609 416.156 272H420.703V271.93C420.703 271.669 420.654 271.391 420.555 271.094C420.456 270.792 420.318 270.531 420.141 270.312C419.964 270.094 419.74 269.917 419.469 269.781C419.203 269.646 418.885 269.578 418.516 269.578ZM430.133 277C430.076 276.891 430.029 276.755 429.992 276.594C429.961 276.427 429.938 276.255 429.922 276.078C429.776 276.224 429.612 276.362 429.43 276.492C429.253 276.622 429.057 276.737 428.844 276.836C428.625 276.935 428.393 277.013 428.148 277.07C427.904 277.128 427.643 277.156 427.367 277.156C426.919 277.156 426.513 277.091 426.148 276.961C425.789 276.831 425.484 276.654 425.234 276.43C424.979 276.211 424.781 275.951 424.641 275.648C424.505 275.341 424.438 275.01 424.438 274.656C424.438 274.193 424.529 273.786 424.711 273.438C424.898 273.089 425.161 272.797 425.5 272.562C425.839 272.333 426.245 272.161 426.719 272.047C427.198 271.932 427.732 271.875 428.32 271.875H429.898V271.211C429.898 270.956 429.852 270.727 429.758 270.523C429.664 270.32 429.531 270.146 429.359 270C429.188 269.859 428.977 269.75 428.727 269.672C428.482 269.594 428.206 269.555 427.898 269.555C427.612 269.555 427.354 269.591 427.125 269.664C426.901 269.737 426.711 269.833 426.555 269.953C426.398 270.073 426.276 270.216 426.188 270.383C426.104 270.544 426.062 270.714 426.062 270.891H424.609C424.615 270.583 424.693 270.281 424.844 269.984C425 269.688 425.224 269.419 425.516 269.18C425.802 268.945 426.151 268.755 426.562 268.609C426.979 268.464 427.451 268.391 427.977 268.391C428.456 268.391 428.901 268.451 429.312 268.57C429.724 268.685 430.081 268.859 430.383 269.094C430.68 269.333 430.914 269.63 431.086 269.984C431.258 270.339 431.344 270.753 431.344 271.227V275.156C431.344 275.438 431.37 275.737 431.422 276.055C431.474 276.367 431.547 276.641 431.641 276.875V277H430.133ZM427.578 275.898C427.859 275.898 428.122 275.862 428.367 275.789C428.612 275.716 428.836 275.62 429.039 275.5C429.237 275.38 429.409 275.245 429.555 275.094C429.701 274.938 429.815 274.776 429.898 274.609V272.898H428.555C428.055 272.898 427.617 272.943 427.242 273.031C426.872 273.115 426.578 273.245 426.359 273.422C426.203 273.547 426.083 273.695 426 273.867C425.922 274.039 425.883 274.234 425.883 274.453C425.883 274.661 425.917 274.854 425.984 275.031C426.057 275.208 426.164 275.359 426.305 275.484C426.445 275.615 426.622 275.716 426.836 275.789C427.049 275.862 427.297 275.898 427.578 275.898ZM439.727 268.391C439.992 268.391 440.268 268.409 440.555 268.445C440.846 268.482 441.065 268.531 441.211 268.594L441.016 270.008C440.734 269.945 440.466 269.901 440.211 269.875C439.961 269.844 439.698 269.828 439.422 269.828C439.068 269.828 438.747 269.872 438.461 269.961C438.174 270.044 437.924 270.169 437.711 270.336C437.518 270.482 437.349 270.661 437.203 270.875C437.062 271.083 436.945 271.318 436.852 271.578V277H435.398V268.547H436.773L436.836 269.68L436.844 269.891C437.188 269.427 437.599 269.062 438.078 268.797C438.562 268.526 439.112 268.391 439.727 268.391ZM443.797 277V268.547H445.094L445.195 269.797C445.32 269.62 445.456 269.458 445.602 269.312C445.753 269.161 445.911 269.031 446.078 268.922C446.328 268.755 446.599 268.628 446.891 268.539C447.188 268.445 447.5 268.396 447.828 268.391C448.271 268.391 448.672 268.453 449.031 268.578C449.396 268.703 449.706 268.898 449.961 269.164C450.216 269.43 450.411 269.768 450.547 270.18C450.688 270.586 450.758 271.07 450.758 271.633V277H449.312V271.664C449.312 271.289 449.271 270.971 449.188 270.711C449.104 270.451 448.982 270.24 448.82 270.078C448.654 269.917 448.451 269.799 448.211 269.727C447.977 269.654 447.706 269.617 447.398 269.617C447.133 269.617 446.885 269.656 446.656 269.734C446.427 269.807 446.216 269.909 446.023 270.039C445.867 270.154 445.721 270.286 445.586 270.438C445.456 270.589 445.341 270.755 445.242 270.938V277H443.797ZM453.633 268.547H457.953V275.75H460.711V277H453.633V275.75H456.508V269.805H453.633V268.547ZM456.32 266.328C456.32 266.203 456.339 266.086 456.375 265.977C456.417 265.867 456.479 265.773 456.562 265.695C456.63 265.628 456.716 265.576 456.82 265.539C456.93 265.497 457.052 265.477 457.188 265.477C457.323 265.477 457.443 265.497 457.547 265.539C457.651 265.576 457.737 265.628 457.805 265.695C457.888 265.768 457.951 265.859 457.992 265.969C458.034 266.078 458.055 266.198 458.055 266.328C458.055 266.562 457.982 266.758 457.836 266.914C457.69 267.07 457.474 267.148 457.188 267.148C456.896 267.148 456.677 267.07 456.531 266.914C456.391 266.758 456.32 266.562 456.32 266.328ZM463.016 277V268.547H464.312L464.414 269.797C464.539 269.62 464.674 269.458 464.82 269.312C464.971 269.161 465.13 269.031 465.297 268.922C465.547 268.755 465.818 268.628 466.109 268.539C466.406 268.445 466.719 268.396 467.047 268.391C467.49 268.391 467.891 268.453 468.25 268.578C468.615 268.703 468.924 268.898 469.18 269.164C469.435 269.43 469.63 269.768 469.766 270.18C469.906 270.586 469.977 271.07 469.977 271.633V277H468.531V271.664C468.531 271.289 468.49 270.971 468.406 270.711C468.323 270.451 468.201 270.24 468.039 270.078C467.872 269.917 467.669 269.799 467.43 269.727C467.195 269.654 466.924 269.617 466.617 269.617C466.352 269.617 466.104 269.656 465.875 269.734C465.646 269.807 465.435 269.909 465.242 270.039C465.086 270.154 464.94 270.286 464.805 270.438C464.674 270.589 464.56 270.755 464.461 270.938V277H463.016ZM472.359 272.703C472.359 272.073 472.435 271.495 472.586 270.969C472.742 270.438 472.966 269.982 473.258 269.602C473.549 269.221 473.904 268.924 474.32 268.711C474.737 268.497 475.208 268.391 475.734 268.391C476.073 268.391 476.383 268.43 476.664 268.508C476.951 268.586 477.208 268.701 477.438 268.852C477.562 268.93 477.68 269.021 477.789 269.125C477.904 269.229 478.01 269.344 478.109 269.469L478.18 268.547H479.492V276.82C479.492 277.378 479.404 277.872 479.227 278.305C479.055 278.737 478.812 279.104 478.5 279.406C478.182 279.708 477.805 279.938 477.367 280.094C476.93 280.25 476.445 280.328 475.914 280.328C475.695 280.328 475.445 280.302 475.164 280.25C474.883 280.203 474.599 280.122 474.312 280.008C474.021 279.898 473.74 279.75 473.469 279.562C473.203 279.375 472.974 279.143 472.781 278.867L473.531 278C473.708 278.214 473.891 278.393 474.078 278.539C474.266 278.69 474.456 278.81 474.648 278.898C474.841 278.987 475.034 279.049 475.227 279.086C475.419 279.128 475.612 279.148 475.805 279.148C476.148 279.148 476.458 279.099 476.734 279C477.01 278.901 477.247 278.755 477.445 278.562C477.638 278.375 477.786 278.141 477.891 277.859C477.995 277.578 478.047 277.255 478.047 276.891V276.164C477.938 276.289 477.82 276.404 477.695 276.508C477.576 276.612 477.445 276.703 477.305 276.781C477.086 276.901 476.844 276.992 476.578 277.055C476.312 277.122 476.026 277.156 475.719 277.156C475.203 277.156 474.737 277.047 474.32 276.828C473.904 276.609 473.552 276.307 473.266 275.922C472.974 275.536 472.75 275.083 472.594 274.562C472.438 274.036 472.359 273.471 472.359 272.867V272.703ZM473.805 272.867C473.805 273.279 473.846 273.669 473.93 274.039C474.018 274.409 474.156 274.734 474.344 275.016C474.526 275.297 474.76 275.521 475.047 275.688C475.333 275.849 475.677 275.93 476.078 275.93C476.328 275.93 476.552 275.901 476.75 275.844C476.953 275.781 477.135 275.695 477.297 275.586C477.453 275.477 477.594 275.346 477.719 275.195C477.844 275.044 477.953 274.878 478.047 274.695V270.82C477.953 270.643 477.844 270.482 477.719 270.336C477.594 270.19 477.451 270.062 477.289 269.953C477.128 269.849 476.948 269.768 476.75 269.711C476.552 269.648 476.333 269.617 476.094 269.617C475.688 269.617 475.339 269.701 475.047 269.867C474.76 270.034 474.526 270.258 474.344 270.539C474.156 270.826 474.018 271.156 473.93 271.531C473.846 271.901 473.805 272.292 473.805 272.703V272.867ZM412.758 292.969C412.753 293.375 412.716 293.786 412.648 294.203C412.586 294.615 412.487 295.013 412.352 295.398C412.216 295.784 412.042 296.143 411.828 296.477C411.62 296.81 411.37 297.102 411.078 297.352C410.786 297.602 410.451 297.799 410.07 297.945C409.695 298.086 409.273 298.156 408.805 298.156C408.336 298.156 407.911 298.086 407.531 297.945C407.156 297.799 406.823 297.602 406.531 297.352C406.24 297.102 405.987 296.81 405.773 296.477C405.56 296.138 405.385 295.776 405.25 295.391C405.109 295.005 405.005 294.607 404.938 294.195C404.87 293.784 404.833 293.375 404.828 292.969V291.672C404.833 291.266 404.867 290.857 404.93 290.445C404.997 290.029 405.102 289.628 405.242 289.242C405.378 288.857 405.549 288.497 405.758 288.164C405.971 287.826 406.224 287.529 406.516 287.273C406.807 287.023 407.141 286.828 407.516 286.688C407.896 286.542 408.32 286.469 408.789 286.469C409.258 286.469 409.682 286.542 410.062 286.688C410.443 286.828 410.779 287.023 411.07 287.273C411.362 287.523 411.612 287.818 411.82 288.156C412.034 288.49 412.211 288.849 412.352 289.234C412.487 289.62 412.586 290.021 412.648 290.438C412.716 290.854 412.753 291.266 412.758 291.672V292.969ZM411.328 291.656C411.323 291.385 411.305 291.104 411.273 290.812C411.242 290.516 411.19 290.221 411.117 289.93C411.039 289.643 410.938 289.37 410.812 289.109C410.688 288.844 410.531 288.609 410.344 288.406C410.156 288.208 409.935 288.052 409.68 287.938C409.424 287.818 409.128 287.758 408.789 287.758C408.456 287.758 408.161 287.818 407.906 287.938C407.651 288.057 407.43 288.216 407.242 288.414C407.055 288.617 406.898 288.852 406.773 289.117C406.648 289.378 406.549 289.651 406.477 289.938C406.398 290.229 406.341 290.523 406.305 290.82C406.273 291.112 406.255 291.391 406.25 291.656V292.969C406.255 293.234 406.273 293.516 406.305 293.812C406.341 294.109 406.398 294.401 406.477 294.688C406.555 294.979 406.656 295.258 406.781 295.523C406.906 295.789 407.062 296.021 407.25 296.219C407.438 296.422 407.659 296.583 407.914 296.703C408.169 296.823 408.466 296.883 408.805 296.883C409.143 296.883 409.44 296.823 409.695 296.703C409.956 296.583 410.18 296.422 410.367 296.219C410.549 296.021 410.701 295.792 410.82 295.531C410.945 295.266 411.047 294.987 411.125 294.695C411.198 294.409 411.247 294.117 411.273 293.82C411.305 293.523 411.323 293.24 411.328 292.969V291.656ZM414.961 301.25V289.547H416.281L416.352 290.469C416.466 290.323 416.591 290.193 416.727 290.078C416.862 289.958 417.008 289.857 417.164 289.773C417.383 289.648 417.625 289.555 417.891 289.492C418.161 289.424 418.451 289.391 418.758 289.391C419.299 289.391 419.779 289.497 420.195 289.711C420.612 289.924 420.961 290.221 421.242 290.602C421.523 290.982 421.737 291.438 421.883 291.969C422.029 292.495 422.102 293.073 422.102 293.703V293.867C422.102 294.471 422.029 295.036 421.883 295.562C421.737 296.083 421.523 296.536 421.242 296.922C420.961 297.307 420.612 297.609 420.195 297.828C419.784 298.047 419.312 298.156 418.781 298.156C418.458 298.156 418.156 298.122 417.875 298.055C417.599 297.987 417.349 297.891 417.125 297.766C416.99 297.688 416.862 297.602 416.742 297.508C416.622 297.409 416.51 297.302 416.406 297.188V301.25H414.961ZM420.656 293.703C420.656 293.292 420.609 292.901 420.516 292.531C420.427 292.156 420.289 291.826 420.102 291.539C419.909 291.258 419.667 291.034 419.375 290.867C419.083 290.701 418.734 290.617 418.328 290.617C418.104 290.617 417.896 290.643 417.703 290.695C417.516 290.747 417.346 290.823 417.195 290.922C417.029 291.021 416.88 291.143 416.75 291.289C416.62 291.435 416.505 291.596 416.406 291.773V295.844C416.495 296 416.596 296.146 416.711 296.281C416.826 296.417 416.956 296.531 417.102 296.625C417.268 296.734 417.453 296.82 417.656 296.883C417.865 296.945 418.094 296.977 418.344 296.977C418.745 296.977 419.091 296.893 419.383 296.727C419.674 296.555 419.914 296.326 420.102 296.039C420.289 295.753 420.427 295.422 420.516 295.047C420.609 294.672 420.656 294.279 420.656 293.867V293.703ZM430.195 295.758C430.195 295.586 430.161 295.432 430.094 295.297C430.026 295.156 429.911 295.029 429.75 294.914C429.589 294.799 429.375 294.695 429.109 294.602C428.844 294.503 428.513 294.414 428.117 294.336C427.633 294.237 427.19 294.117 426.789 293.977C426.393 293.836 426.055 293.667 425.773 293.469C425.487 293.276 425.266 293.049 425.109 292.789C424.953 292.523 424.875 292.216 424.875 291.867C424.875 291.523 424.956 291.203 425.117 290.906C425.279 290.604 425.505 290.341 425.797 290.117C426.089 289.893 426.435 289.716 426.836 289.586C427.242 289.456 427.688 289.391 428.172 289.391C428.693 289.391 429.161 289.458 429.578 289.594C429.995 289.729 430.349 289.917 430.641 290.156C430.932 290.396 431.156 290.677 431.312 291C431.474 291.318 431.555 291.661 431.555 292.031H430.109C430.109 291.849 430.062 291.672 429.969 291.5C429.875 291.323 429.745 291.167 429.578 291.031C429.411 290.896 429.208 290.786 428.969 290.703C428.734 290.62 428.469 290.578 428.172 290.578C427.865 290.578 427.594 290.612 427.359 290.68C427.13 290.747 426.94 290.839 426.789 290.953C426.633 291.068 426.516 291.201 426.438 291.352C426.359 291.503 426.32 291.659 426.32 291.82C426.32 291.987 426.352 292.135 426.414 292.266C426.477 292.396 426.586 292.513 426.742 292.617C426.893 292.721 427.096 292.815 427.352 292.898C427.612 292.982 427.94 293.062 428.336 293.141C428.857 293.25 429.323 293.378 429.734 293.523C430.146 293.664 430.492 293.833 430.773 294.031C431.055 294.234 431.268 294.469 431.414 294.734C431.565 295 431.641 295.307 431.641 295.656C431.641 296.031 431.555 296.372 431.383 296.68C431.216 296.987 430.982 297.25 430.68 297.469C430.378 297.688 430.016 297.857 429.594 297.977C429.172 298.096 428.711 298.156 428.211 298.156C427.638 298.156 427.128 298.081 426.68 297.93C426.232 297.773 425.854 297.568 425.547 297.312C425.234 297.062 424.995 296.771 424.828 296.438C424.667 296.104 424.586 295.758 424.586 295.398H426.031C426.052 295.695 426.13 295.945 426.266 296.148C426.406 296.352 426.581 296.516 426.789 296.641C426.992 296.766 427.219 296.854 427.469 296.906C427.719 296.958 427.966 296.984 428.211 296.984C428.596 296.984 428.932 296.94 429.219 296.852C429.505 296.758 429.729 296.63 429.891 296.469C429.99 296.37 430.065 296.26 430.117 296.141C430.169 296.021 430.195 295.893 430.195 295.758Z" fill="#20043D"/>
<defs>
<filter id="filter0_dd_1_8" x="161.019" y="56.0218" width="229.53" height="229.53" filterUnits="userSpaceOnUse" color-interpolation-filters="sRGB">
<feFlood flood-opacity="0" result="BackgroundImageFix"/>
<feColorMatrix in="SourceAlpha" type="matrix" values="0 0 0 0 0 0 0 0 0 0 0 0 0 0 0 0 0 0 127 0" result="hardAlpha"/>
<feOffset dx="1" dy="6"/>
<feGaussianBlur stdDeviation="12"/>
<feColorMatrix type="matrix" values="0 0 0 0 0.236857 0 0 0 0 0.391758 0 0 0 0 0.692448 0 0 0 0.12 0"/>
<feBlend mode="normal" in2="BackgroundImageFix" result="effect1_dropShadow_1_8"/>
<feColorMatrix in="SourceAlpha" type="matrix" values="0 0 0 0 0 0 0 0 0 0 0 0 0 0 0 0 0 0 127 0" result="hardAlpha"/>
<feOffset dy="2"/>
<feGaussianBlur stdDeviation="2"/>
<feComposite in2="hardAlpha" operator="out"/>
<feColorMatrix type="matrix" values="0 0 0 0 0.236857 0 0 0 0 0.391758 0 0 0 0 0.692448 0 0 0 0.12 0"/>
<feBlend mode="normal" in2="effect1_dropShadow_1_8" result="effect2_dropShadow_1_8"/>
<feBlend mode="normal" in="SourceGraphic" in2="effect2_dropShadow_1_8" result="shape"/>
</filter>
<linearGradient id="paint0_linear_1_8" x1="349.24" y1="343.002" x2="340.079" y2="390.213" gradientUnits="userSpaceOnUse">
<stop stop-color="#672CE3"/>
<stop offset="1" stop-color="#D152FE"/>
</linearGradient>
<linearGradient id="paint1_linear_1_8" x1="10.0869" y1="81.0098" x2="49.4235" y2="86.1184" gradientUnits="userSpaceOnUse">
<stop stop-color="#672CE3"/>
<stop offset="1" stop-color="#D152FE"/>
</linearGradient>
<linearGradient id="paint2_linear_1_8" x1="216.994" y1="187.658" x2="242.867" y2="151.328" gradientUnits="userSpaceOnUse">
<stop stop-color="#D08BFF"/>
<stop offset="1" stop-color="#8D00EC"/>
</linearGradient>
<linearGradient id="paint3_linear_1_8" x1="355.736" y1="126.993" x2="221.891" y2="190.718" gradientUnits="userSpaceOnUse">
<stop stop-color="#F683AC"/>
<stop offset="0.479844" stop-color="#FF006B" stop-opacity="0.59"/>
<stop offset="1" stop-color="#9900FF" stop-opacity="0.63"/>
</linearGradient>
<clipPath id="clip0_1_8">
<rect width="132.727" height="30" fill="white" transform="translate(215.216 149.002)"/>
</clipPath>
</defs>
</svg>
